<?xml version="1.0" encoding="UTF-8"?>
<!-- Generated by Pixelmator Pro 3.4.3 -->
<svg width="512" height="512" viewBox="0 0 512 512" xmlns="http://www.w3.org/2000/svg">
    <g id="Group-copy">
        <path id="Path" fill="#ffffff" stroke="none" d="M 317.846497 253.491394 C 309.548828 252.044128 300.865234 252.237122 292.374603 252.719543 C 273.077728 253.780884 253.780853 255.614075 234.483978 253.877319 C 225.317963 253.008972 216.055466 252.140625 206.792969 252.333618 C 190.004684 252.623047 175.917969 258.122681 167.620316 274.139038 C 163.471481 282.050781 162.506638 290.541382 162.796097 299.321472 C 163.471481 324.021484 174.181244 338.108215 197.723434 345.15155 C 216.634369 350.747681 236.02774 351.519531 255.517578 351.133606 C 262.753906 351.133606 269.990234 351.519531 277.226563 351.037109 C 292.181641 350.168762 306.84726 347.949585 321.030457 342.739441 C 335.696106 337.336304 344.476166 327.012512 347.660156 312.057434 C 348.914459 306.268372 349.493347 300.189819 349.396881 294.304321 C 349.203918 274.332031 335.696106 256.482422 317.846497 253.491394 Z M 222.905853 318.81134 C 216.634369 325.661743 207.56485 325.758179 201.100388 319.100769 C 196.37265 314.27655 193.671097 306.84729 193.671097 297.584778 C 193.864059 291.313293 195.697266 284.462891 201.100388 278.963257 C 207.56485 272.305847 216.634369 272.402344 222.905853 279.15625 C 232.361328 289.383606 232.361328 308.583984 222.905853 318.81134 Z M 310.610168 319.293762 C 304.724609 325.372253 296.233978 325.565247 289.962494 319.969116 C 279.15625 310.127747 279.15625 288.225769 289.962494 278.287903 C 296.137512 272.595337 304.628113 272.788269 310.610168 278.866821 C 316.109772 284.462891 317.942963 291.506226 318.232422 299.032043 C 317.942963 306.654297 316.013275 313.601196 310.610168 319.293762 Z"/>
        <path id="path1" fill="#ffffff" stroke="none" d="M 256 9 C 119.571091 9 9 119.571106 9 256 C 9 392.428925 119.571091 503 256 503 C 392.428894 503 503 392.428925 503 256 C 503 119.571106 392.428894 9 256 9 Z M 382.587494 277.612488 C 381.236725 288.611694 378.921082 299.900391 374.96524 310.224243 C 363.387115 339.84491 340.230865 356.150757 309.548828 361.071472 C 291.988678 363.869507 273.946106 363.966034 254.456253 365.4133 C 236.992584 363.869507 217.792191 363.676544 199.1707 360.396118 C 163.085541 354.028137 138.578522 328.749207 131.438675 292.567566 C 127.772263 274.139038 126.710938 255.614075 132.403519 237.282043 C 135.394531 227.826538 140.315231 219.432434 146.683197 211.810181 C 147.551559 210.845337 148.323441 209.398071 148.226959 208.143738 C 147.165619 191.548462 149.095306 175.146088 154.016022 159.322662 C 158.068359 146.104309 155.077347 146.87616 169.742966 150.735535 C 187.399612 155.366791 202.837112 164.918762 217.985153 174.856628 C 219.721878 176.014465 222.423431 176.496887 224.546097 176.110931 C 245.965622 172.830475 267.288666 172.637512 288.708191 176.400391 C 290.251953 176.68985 292.278137 176.110931 293.725403 175.242584 C 306.750793 166.751953 320.162109 159.1297 334.827728 153.823059 C 340.134369 151.893372 345.730469 150.639069 351.133606 148.99884 C 353.545715 148.323425 354.607025 149.191803 355.475403 151.507416 C 362.036316 169.839447 364.737885 188.653931 363.773041 208.047241 C 363.676575 209.108582 364.255463 210.555847 364.930847 211.424194 C 381.429688 230.528137 385.578522 253.298462 382.587494 277.612488 Z"/>
    </g>
</svg>
