<?xml version="1.0" encoding="UTF-8"?>
<!-- Generated by Pixelmator Pro 3.4.3 -->
<svg width="512" height="512" viewBox="0 0 512 512" xmlns="http://www.w3.org/2000/svg">
    <path id="Path-copy" fill="#646464" fill-rule="evenodd" stroke="none" d="M 256 503 C 119.581894 503 9 392.418091 9 256 C 9 119.581909 119.581894 9 256 9 C 392.418091 9 503 119.581909 503 256 C 503 392.418091 392.418091 503 256 503 Z"/>
    <path id="Path-copy-2" fill="#e9e9e9" fill-rule="evenodd" stroke="none" d="M 219.490265 364.877563 C 222.396179 370.32428 225.306137 375.232178 228.087723 379.581085 C 198.534714 372.935303 172.890793 355.960266 155.145966 332.646851 C 166.857239 326.051758 181.856934 319.215088 199.889374 314.212646 C 205.014465 334.313782 212.244934 351.292175 219.490265 364.877563 Z M 241.843735 352.95575 C 235.54924 341.155487 229.241226 326.418213 224.696426 308.956787 C 234.480164 307.504333 244.924271 306.666687 256.001678 306.666687 C 267.077423 306.666687 277.521515 307.504333 287.303558 308.955109 C 282.758759 326.418213 276.450775 341.155487 270.156281 352.95575 C 265.109863 362.418579 260.082062 369.972961 256 375.500732 C 251.917953 369.972961 246.890121 362.418579 241.843735 352.95575 Z M 218 256 C 218 265.864807 218.663727 275.228027 219.834137 284.067627 C 231.120972 282.336517 243.18808 281.333313 256.001678 281.333313 C 268.813599 281.333313 280.880707 282.334839 292.165863 284.067627 C 293.336273 275.226318 294 265.864807 294 256 C 294 246.135193 293.336273 236.773682 292.165863 227.932343 C 280.880707 229.663483 268.813599 230.666656 256.001678 230.666656 C 243.18808 230.666656 231.120972 229.663483 219.834137 227.932343 C 218.663727 236.772003 218 246.135193 218 256 Z M 194.978409 222.708618 C 193.507217 233.162872 192.666672 244.268982 192.666672 256 C 192.666672 267.731018 193.507217 278.837158 194.978409 289.291382 C 173.470413 295.065674 155.660065 303.207825 141.885834 311.042572 C 133.842331 294.39856 129.333328 275.726227 129.333328 256 C 129.333328 236.273773 133.842331 217.602112 141.885651 200.957092 C 155.658386 208.790802 173.46907 216.933624 194.978409 222.708618 Z M 224.696426 203.044067 C 234.480164 204.496002 244.924271 205.333344 256.001678 205.333344 C 267.077423 205.333344 277.521515 204.496155 287.303558 203.044373 C 282.758759 185.582611 276.450775 170.845062 270.156281 159.044281 C 265.109863 149.582092 260.082062 142.026337 256 136.499603 C 251.917953 142.026337 246.890121 149.582092 241.843735 159.043945 C 235.54924 170.844727 229.241226 185.582306 224.696426 203.044067 Z M 317.02124 222.710297 C 318.492279 233.16452 319.333344 244.27066 319.333344 256 C 319.333344 267.731018 318.492279 278.835449 317.02124 289.289673 C 338.529236 295.065674 356.340302 303.207825 370.114868 311.042572 C 378.157318 294.396912 382.666656 275.724548 382.666656 256 C 382.666656 236.275482 378.157318 217.6026 370.114868 200.957916 C 356.341949 208.791687 338.530945 216.934326 317.02124 222.710297 Z M 356.853699 179.354523 C 345.141235 185.950104 330.142212 192.785736 312.111633 197.788727 C 306.98587 177.68692 299.755737 160.707642 292.510406 147.122742 C 289.603821 141.675232 286.693848 136.768646 283.912292 132.418945 C 313.466125 139.065216 339.110229 156.040741 356.853699 179.354523 Z M 199.889206 197.788239 C 181.857956 192.785065 166.858765 185.949432 155.146149 179.353638 C 172.890793 156.040405 198.534714 139.065216 228.086044 132.418945 C 225.306137 136.768646 222.396179 141.675049 219.490112 147.122406 C 212.244934 160.707306 205.014465 177.686371 199.889206 197.788239 Z M 312.111633 314.210938 C 306.98587 334.313782 299.755737 351.292175 292.510406 364.877563 C 289.603821 370.32428 286.693848 375.232178 283.912292 379.581085 C 313.466125 372.935303 339.110229 355.958557 356.855408 332.645142 C 345.142944 326.050049 330.143921 319.215088 312.111633 314.210938 Z M 256 408 C 339.947906 408 408 339.947937 408 256 C 408 172.052734 339.947906 104 256 104 C 172.052765 104 104 172.052734 104 256 C 104 339.947937 172.052765 408 256 408 Z"/>
</svg>
