<?xml version="1.0" encoding="UTF-8"?>
<!-- Generated by Pixelmator Pro 3.4.3 -->
<svg width="512" height="512" viewBox="0 0 512 512" xmlns="http://www.w3.org/2000/svg">
    <path id="Path-copy" fill="#FFFFFF" fill-rule="evenodd" stroke="none" d="M 256 503 C 119.581894 503 9 392.418091 9 256 C 9 119.581909 119.581894 9 256 9 C 392.418091 9 503 119.581909 503 256 C 503 392.418091 392.418091 503 256 503 Z"/>
    <path id="Path-copy-3" fill="#191919" stroke="none" d="M 315.492188 343.324585 L 276.035217 381.442566 C 269.186462 388.302246 259.747528 391.155884 249.342743 391.155884 C 238.937943 391.155884 229.509979 388.302246 222.650269 381.442566 L 159.255676 317.652832 C 152.450851 310.793152 148.971619 300.783478 148.971619 290.378693 C 148.971619 279.929993 152.450851 270.491028 159.255676 263.686218 L 222.47467 199.545288 C 229.279495 192.751434 238.937943 190.11731 249.342743 190.11731 C 259.747528 190.11731 269.186462 192.970947 276.035217 199.830658 L 315.492188 237.948639 C 323.032379 245.499786 335.500549 245.225403 343.326111 237.377899 C 351.096771 229.552368 351.393127 217.095123 343.841949 209.543976 L 305.723999 171.008942 C 295.835022 161.229767 283.421722 154.490784 269.932831 151.395691 L 306.009338 114.81427 C 313.560486 107.274109 313.330017 94.805908 305.4935 86.980377 C 297.656982 79.154816 285.199738 78.913361 277.659576 86.409637 L 129.830307 234.238922 C 115.485306 248.638794 108 268.405701 108 290.35675 C 108 312.263855 115.496284 332.722229 129.830307 347.078217 L 193.455399 410.86795 C 207.800385 425.212952 227.644135 432.127502 249.595169 432.127502 C 271.491333 432.127502 291.313141 424.631226 305.669098 410.297211 L 343.852936 371.652405 C 351.404083 364.156128 351.107758 351.7099 343.282196 343.873352 C 335.456665 336.036835 322.988464 335.751465 315.503174 343.302643 Z M 384.418457 271.347168 L 235.908707 271.347168 C 225.67952 271.347168 217.33812 280.138519 217.33812 291.004272 C 217.33812 301.881042 225.67952 310.727295 235.908707 310.727295 L 384.418457 310.727295 C 394.6586 310.727295 403 301.870056 403 291.004272 C 403 280.149475 394.6586 271.347168 384.418457 271.347168 Z"/>
</svg>
