<?xml version="1.0" encoding="UTF-8"?>
<!-- Generated by Pixelmator Pro 3.4.1 -->
<svg width="512" height="512" viewBox="0 0 512 512" xmlns="http://www.w3.org/2000/svg">
    <g id="Group">
        <g id="g1">
            <path id="Path" fill="#2a51ca" stroke="none" d="M 508 256.878998 C 508 394.945007 396.06601 506.878998 258 506.878998 C 119.932999 506.878998 8 394.945007 8 256.878998 C 8 118.812012 119.932999 6.878998 258 6.878998 C 396.06601 6.878998 508 118.812012 508 256.878998 Z"/>
            <g id="leetcode">
                <path id="path1" fill="#b3b1b0" stroke="none" d="M 401 270.424896 C 401 260.167969 393.203613 251.818604 383.58255 251.818604 L 244.464005 251.818604 C 234.842926 251.818604 227.046539 260.167969 227.046539 270.424896 C 227.046539 280.681885 234.829117 289.031189 244.464005 289.031189 L 383.58255 289.031189 C 393.203613 289.045013 401 280.695679 401 270.424896 Z"/>
                <path id="path2" fill="#e7a41f" stroke="none" d="M 145.018585 323.396118 L 204.63884 383.679901 C 218.088989 397.212952 236.681442 403.751434 257.209167 403.751434 C 277.736908 403.751434 296.329346 396.673889 309.807129 383.099304 L 345.582062 346.647034 C 352.631989 339.541809 352.383179 327.778107 345.042938 320.382629 C 337.702728 312.987122 326.035767 312.738281 318.999695 319.843506 L 282.008331 355.881042 C 275.621918 362.336578 266.774963 365.032135 257.001831 365.032135 C 247.228699 365.032135 238.395538 362.336578 231.981491 355.881042 L 172.568588 295.569641 C 166.168365 289.114136 162.94751 279.672729 162.94751 269.816711 C 162.94751 259.960571 166.168365 251.05835 172.568588 244.602844 L 231.801788 184.056427 C 238.202011 177.600891 247.228699 175.14032 256.987976 175.14032 C 266.747284 175.14032 275.594269 177.835876 281.994476 184.291382 L 318.98587 220.315125 C 326.035767 227.434204 337.702728 227.185364 345.042938 219.789856 C 352.383179 212.380524 352.631989 200.616852 345.582062 193.511627 L 309.807129 157.073181 C 300.712402 147.98526 289.260468 141.617767 276.741608 138.68808 L 276.271606 138.591309 L 310.097443 103.991394 C 317.174988 96.886169 316.926178 85.108643 309.585968 77.713135 C 302.245728 70.317596 290.564972 70.082611 283.501221 77.187836 L 145.018585 216.803986 C 131.568436 230.378571 124.532333 249.109253 124.532333 269.816711 C 124.532333 290.524109 131.568436 309.849182 145.018585 323.396118 Z"/>
                <path id="path3" fill="#070706" stroke="none" d="M 209.062332 387.356873 C 206.653076 386.011932 204.446976 384.331757 202.51004 382.366669 C 184.166412 363.940125 165.739838 345.596436 147.437683 327.114624 C 119.94297 299.357239 115.616249 258.868591 136.57251 225.92746 C 139.920959 220.892273 143.810013 216.238373 148.170319 212.048767 L 281.192749 78.749878 C 289.832336 70.096436 301.900177 69.73703 309.931549 77.8237 C 317.672668 85.606262 317.216461 97.936737 308.853333 106.382813 C 298.223114 117.109772 287.579132 127.809082 276.93512 138.522156 C 276.368378 140.208618 274.999847 141.286865 273.82489 142.489502 C 261.895294 154.598755 249.633957 166.390137 237.87027 178.679108 C 236.335861 180.282623 234.24852 181.250275 232.727951 182.895233 C 213.057281 202.565918 193.151611 222.015442 173.757401 241.94873 C 158.067871 258.080627 158.593155 282.561829 174.697388 298.997864 C 192.778381 317.465881 211.177292 335.629822 229.451813 353.931976 C 230.377975 354.858124 231.331787 355.756653 232.271774 356.669006 C 238.741119 360.857452 238.824066 373.948242 234.801468 379.767853 C 230.364151 386.19574 224.572159 390.135376 216.374893 389.831299 C 213.624039 389.748352 211.35701 388.642487 209.062332 387.356873 Z"/>
            </g>
        </g>
    </g>
</svg>
