<?xml version="1.0" encoding="UTF-8"?>
<!-- Generated by Pixelmator Pro 3.4.3 -->
<svg width="512" height="512" viewBox="0 0 512 512" xmlns="http://www.w3.org/2000/svg">
    <path id="Path-copy" fill="#646464" fill-rule="evenodd" stroke="none" d="M 256 503 C 119.581894 503 9 392.418091 9 256 C 9 119.581909 119.581894 9 256 9 C 392.418091 9 503 119.581909 503 256 C 503 392.418091 392.418091 503 256 503 Z"/>
    <path id="Path-copy-3" fill="#d5d5d5" stroke="none" d="M 308.140106 331.017395 L 273.93512 364.061584 C 267.998016 370.008209 259.81546 372.481995 250.795609 372.481995 C 241.775772 372.481995 233.602722 370.008209 227.656097 364.061584 L 172.699783 308.762756 C 166.80072 302.816101 163.784592 294.138794 163.784592 285.118958 C 163.784592 276.061066 166.80072 267.878479 172.699783 261.979431 L 227.503876 206.376129 C 233.402924 200.486603 241.775772 198.203094 250.795609 198.203094 C 259.81546 198.203094 267.998016 200.67688 273.93512 206.623505 L 308.140106 239.667694 C 314.676636 246.213745 325.485199 245.975891 332.269135 239.172943 C 339.005463 232.389038 339.26236 221.589966 332.716309 215.043915 L 299.672119 181.638153 C 291.099457 173.160675 280.33844 167.318695 268.644989 164.63559 L 299.919495 132.923401 C 306.465515 126.386871 306.265717 115.578278 299.47229 108.794403 C 292.678864 102.010498 281.879791 101.801178 275.343262 108.299622 L 147.191132 236.451782 C 134.755554 248.934937 128.266586 266.07074 128.266586 285.099915 C 128.266586 304.091064 134.76506 321.826294 147.191132 334.271362 L 202.34726 389.570251 C 214.782837 402.005798 231.985245 408 251.01445 408 C 269.996063 408 287.179443 401.501526 299.624512 389.07547 L 332.72583 355.574585 C 339.271851 349.076111 339.014984 338.28653 332.231049 331.493103 C 325.447174 324.699707 314.63858 324.452301 308.149628 330.998352 Z M 367.891815 268.620667 L 239.14975 268.620667 C 230.282135 268.620667 223.051041 276.241821 223.051041 285.661285 C 223.051041 295.090271 230.282135 302.759033 239.14975 302.759033 L 367.891815 302.759033 C 376.76889 302.759033 384 295.080719 384 285.661285 C 384 276.251343 376.76889 268.620667 367.891815 268.620667 Z"/>
</svg>
