<?xml version="1.0" encoding="UTF-8"?>
<!-- Generated by Pixelmator Pro 3.4.3 -->
<svg width="512" height="512" viewBox="0 0 512 512" xmlns="http://www.w3.org/2000/svg">
    <g id="Group">
        <path id="Path-copy" fill="#ffffff" stroke="none" d="M 255.5 5 C 116.585548 5 4 117.585541 4 256.5 C 4 395.41449 116.585548 508 255.5 508 C 394.414459 508 507 395.41449 507 256.5 C 507 117.585541 394.414459 5 255.5 5 Z M 185.1586 361.717407 L 136.135742 361.717407 L 136.135742 204.824615 L 185.1586 204.824615 L 185.1586 361.717407 Z M 159.320892 185.176178 L 158.927933 185.176178 C 141.146088 185.176178 129.651764 173.190613 129.651764 157.963074 C 129.651764 142.440826 141.539063 130.75 159.615631 130.75 C 177.692184 130.75 188.793549 142.440826 189.186523 157.963074 C 189.28476 173.092377 177.790436 185.176178 159.320892 185.176178 Z M 381.25 361.717407 L 325.644928 361.717407 L 325.644928 280.569336 C 325.644928 259.34903 316.999603 244.809174 297.842377 244.809174 C 283.204285 244.809174 275.050201 254.633392 271.316986 264.064667 C 269.941589 267.404877 270.138092 272.120514 270.138092 276.934357 L 270.138092 361.717407 L 215.024216 361.717407 C 215.024216 361.717407 215.711914 217.890839 215.024216 204.824615 L 270.138092 204.824615 L 270.138092 229.483398 C 273.380066 218.676758 290.965424 203.350983 319.062683 203.350983 C 353.93866 203.350983 381.25 225.946686 381.25 274.478302 L 381.25 361.717407 Z"/>
    </g>
</svg>
