<?xml version="1.0" encoding="UTF-8"?>
<!-- Generated by Pixelmator Pro 3.4.3 -->
<svg width="512" height="512" viewBox="0 0 512 512" xmlns="http://www.w3.org/2000/svg">
    <path id="Path-copy" fill="#646464" fill-rule="evenodd" stroke="none" d="M 256 503 C 119.581894 503 9 392.418091 9 256 C 9 119.581909 119.581894 9 256 9 C 392.418091 9 503 119.581909 503 256 C 503 392.418091 392.418091 503 256 503 Z"/>
    <path id="Path-copy-2" fill="#d5d5d5" stroke="none" d="M 344.24472 380.023499 L 344.24472 299.007019 L 371.199982 299.007019 L 371.199982 407.129395 L 128 407.129395 L 128 299.007019 L 155.105881 299.007019 L 155.105881 380.023499 L 344.24472 380.023499 M 184.771759 291.4776 L 190.343521 264.974121 L 322.710571 292.832947 L 317.138824 319.336456 L 184.771759 291.4776 M 202.23999 228.079987 L 213.684692 203.835266 L 336.263519 260.757629 L 324.818787 285.152893 L 202.23999 228.079987 M 236.272934 167.844696 L 253.590576 147.063538 L 357.49646 233.802338 L 340.178833 254.432922 L 236.272934 167.844696 M 303.284698 103.844696 L 384 212.569397 L 362.315277 228.682312 L 281.600006 120.108215 L 303.284698 103.99527 M 182.814117 353.068207 L 182.814117 325.962341 L 318.343536 325.962341 L 318.343536 353.068207 Z"/>
</svg>
