<?xml version="1.0" encoding="UTF-8"?>
<!-- Generated by Pixelmator Pro 3.4.3 -->
<svg width="512" height="512" viewBox="0 0 512 512" xmlns="http://www.w3.org/2000/svg">
    <path id="Path-copy" fill="#ffffff" fill-rule="evenodd" stroke="none" d="M 256 503 C 119.581894 503 9 392.418091 9 256 C 9 119.581909 119.581894 9 256 9 C 392.418091 9 503 119.581909 503 256 C 503 392.418091 392.418091 503 256 503 Z"/>
    <path id="Path-copy-2" fill="#191919" stroke="none" d="M 342.24472 375.023499 L 342.24472 294.007019 L 369.199982 294.007019 L 369.199982 402.129395 L 126 402.129395 L 126 294.007019 L 153.105881 294.007019 L 153.105881 375.023499 L 342.24472 375.023499 M 182.771759 286.4776 L 188.343521 259.974121 L 320.710571 287.832947 L 315.138824 314.336456 L 182.771759 286.4776 M 200.23999 223.079987 L 211.684692 198.835266 L 334.263519 255.757629 L 322.818787 280.152893 L 200.23999 223.079987 M 234.272934 162.844696 L 251.590576 142.063538 L 355.49646 228.802338 L 338.178833 249.432922 L 234.272934 162.844696 M 301.284698 98.844696 L 382 207.569397 L 360.315277 223.682312 L 279.600006 115.108215 L 301.284698 98.99527 M 180.814117 348.068207 L 180.814117 320.962341 L 316.343536 320.962341 L 316.343536 348.068207 Z"/>
</svg>
