<?xml version="1.0" encoding="UTF-8"?>
<!-- Generated by Pixelmator Pro 3.4.3 -->
<svg width="512" height="512" viewBox="0 0 512 512" xmlns="http://www.w3.org/2000/svg">
    <g id="Group">
        <path id="-copy" fill="#ffffff" stroke="none" d="M 255.899994 3 C 395.906067 3 509.399994 116.495514 509.399994 256.5 C 509.399994 396.504486 395.906067 510 255.899994 510 C 115.895508 510 2.4 396.504486 2.4 256.5 C 2.4 116.495514 115.895508 3 255.899994 3 Z M 343.345428 359.833557 C 348.002106 345.531189 369.859924 202.94928 372.550507 174.85376 C 373.365387 166.34433 370.674805 160.687347 365.414642 158.162567 C 359.044952 155.104248 349.61377 156.633423 338.658142 160.583618 C 323.647003 165.994659 131.7341 247.479797 120.651962 252.194611 C 110.145813 256.662659 100.196007 261.533051 100.196007 268.592682 C 100.196007 273.554993 103.141968 276.349304 111.253792 279.243408 C 119.688568 282.253845 140.953903 288.692688 153.515701 292.157288 C 165.610748 295.493774 179.36618 292.598083 187.082748 287.805481 C 195.254288 282.727661 289.645416 219.575226 296.411926 214.039276 C 303.178467 208.503296 308.584778 215.595947 303.050385 221.13269 C 297.513641 226.668671 232.738525 289.542908 224.186661 298.251953 C 213.808594 308.823303 221.172333 319.773438 228.135315 324.161346 C 236.078186 329.170044 293.227081 367.499023 301.837891 373.651062 C 310.45105 379.801514 319.171875 382.587158 327.168945 382.587158 C 335.165253 382.587158 339.366943 372.051147 343.345428 359.833557 Z"/>
    </g>
</svg>
