<?xml version="1.0" encoding="UTF-8"?>
<!-- Generated by Pixelmator Pro 3.4.1 -->
<svg width="512" height="512" viewBox="0 0 512 512" xmlns="http://www.w3.org/2000/svg">
    <g id="Group">
        <g id="g1">
            <g id="telegram">
                <path id="Path" fill="#419fd9" stroke="none" d="M 258 7 L 258 7 C 396.071167 7 508 118.928833 508 257 L 508 257 C 508 395.071167 396.071167 507 258 507 L 258 507 C 119.92881 507 8 395.071167 8 257 L 8 257 C 8 118.928833 119.92881 7 258 7 Z"/>
                <linearGradient id="linearGradient1" x1="258" y1="7" x2="258" y2="503.291667" gradientUnits="userSpaceOnUse">
                    <stop offset="1e-05" stop-color="#2aabee" stop-opacity="1"/>
                    <stop offset="1" stop-color="#229ed9" stop-opacity="1"/>
                </linearGradient>
                <path id="path1" fill="url(#linearGradient1)" stroke="none" d="M 258 7 L 258 7 C 396.071167 7 508 118.928833 508 257 L 508 257 C 508 395.071167 396.071167 507 258 507 L 258 507 C 119.92881 507 8 395.071167 8 257 L 8 257 C 8 118.928833 119.92881 7 258 7 Z"/>
                <path id="path2" fill="#ffffff" stroke="none" d="M 120.368752 251.488525 C 193.069794 219.148956 241.547928 197.828125 265.805206 187.526031 C 335.061462 158.114594 349.453125 153.005219 358.833344 152.835388 C 360.895813 152.799988 365.508331 153.321838 368.496887 155.796875 C 371.019775 157.887482 371.713531 160.711487 372.045807 162.692688 C 372.378143 164.674988 372.791656 169.189575 372.462494 172.716644 C 368.709381 212.979156 352.470825 310.686462 344.208344 355.78125 C 340.712494 374.862488 333.829163 381.260437 327.165619 381.886475 C 312.683319 383.246887 301.685425 372.114563 287.659363 362.726044 C 265.709381 348.036438 253.310425 338.890625 232.004166 324.556244 C 207.382278 307.989594 223.34375 298.884399 237.376038 284.003113 C 241.047928 280.109375 304.8573 220.848938 306.092712 215.473969 C 306.246887 214.801056 306.390625 212.2948 304.932312 210.971893 C 303.473938 209.648956 301.321869 210.101044 299.768738 210.460419 C 297.567719 210.970825 262.503143 234.634369 194.57605 281.45105 C 184.62291 288.429169 175.608337 291.828125 167.53125 291.650024 C 158.62709 291.454163 141.498962 286.510437 128.765625 282.284363 C 113.147919 277.099976 100.734795 274.360413 101.815628 265.557312 C 102.378647 260.971863 108.562813 256.282288 120.368752 251.488525 Z"/>
            </g>
        </g>
    </g>
</svg>
