<?xml version="1.0" encoding="UTF-8"?>
<!-- Generated by Pixelmator Pro 3.4.1 -->
<svg width="381" height="381" viewBox="0 0 381 381" xmlns="http://www.w3.org/2000/svg">
    <g id="-copy">
        <path id="path1" fill="#000000" stroke="none" d="M 19.610619 125.809128 C 30.998152 125.809128 37.055347 119.509644 37.055347 108.122101 L 37.055347 64.752563 C 37.055347 46.580963 46.989155 37.131744 64.434486 37.131744 L 109.014862 37.131744 C 120.403 37.131744 126.701881 30.832275 126.701881 19.687012 C 126.701881 8.2995 120.403 2 109.014862 2 L 63.949306 2 C 22.760363 2 2.165889 22.352173 2.165889 63.056549 L 2.165889 108.122101 C 2.165889 119.509644 8.465375 125.809128 19.610619 125.809128 Z M 361.478882 125.809128 C 372.866394 125.809128 378.923615 119.509644 378.923615 108.122101 L 378.923615 63.056549 C 378.923615 22.352173 358.571411 2 317.140167 2 L 272.074615 2 C 260.687103 2 254.387619 8.2995 254.387619 19.687012 C 254.387619 30.832275 260.687103 37.131744 272.074615 37.131744 L 316.655609 37.131744 C 334.100342 37.131744 344.034149 46.580963 344.034149 64.752563 L 344.034149 108.122101 C 344.034149 119.509644 350.333618 125.809128 361.478882 125.809128 Z M 63.949306 379 L 109.014862 379 C 120.403 379 126.701881 372.7005 126.701881 361.555267 C 126.701881 350.167725 120.403 343.868256 109.014862 343.868256 L 64.434486 343.868256 C 46.989155 343.868256 37.055347 334.419006 37.055347 316.247437 L 37.055347 273.120178 C 37.055347 261.490356 30.755863 255.190872 19.610619 255.190872 C 8.223087 255.190872 2.165889 261.490356 2.165889 273.120178 L 2.165889 317.943451 C 2.165889 358.647827 22.760363 379 63.949306 379 Z M 272.074615 379 L 317.140167 379 C 358.571411 379 378.923615 358.647827 378.923615 317.943451 L 378.923615 273.120178 C 378.923615 261.490356 372.624115 255.190872 361.478882 255.190872 C 350.091339 255.190872 344.034149 261.490356 344.034149 273.120178 L 344.034149 316.247437 C 344.034149 334.419006 334.100342 343.868256 316.655609 343.868256 L 272.074615 343.868256 C 260.687103 343.868256 254.387619 350.167725 254.387619 361.555267 C 254.387619 372.7005 260.687103 379 272.074615 379 Z"/>
        <path id="path2" fill="#000000" stroke="none" d="M 91.327843 208.429306 L 167.163956 208.429306 C 171.282852 208.429306 173.948029 211.094467 173.948029 215.455658 L 173.948029 290.080322 C 173.948029 309.221069 193.815628 311.159393 200.115112 297.348969 L 282.735291 120.963379 C 290.246216 104.972351 276.435822 90.677368 259.960846 98.430603 L 84.059204 182.262207 C 70.491081 188.561691 72.671677 208.429306 91.327843 208.429306 Z"/>
    </g>
</svg>
