<?xml version="1.0" encoding="UTF-8"?>
<!-- Generated by Pixelmator Pro 3.4.1 -->
<svg width="814" height="1000" viewBox="0 0 814 1000" xmlns="http://www.w3.org/2000/svg">
    <path id="Path" fill="#ffffff" stroke="none" d="M 788.099976 340.900024 C 782.299988 345.400024 679.900024 403.099976 679.900024 531.400024 C 679.900024 679.799988 810.200012 732.299988 814.099976 733.599976 C 813.5 736.799988 793.400024 805.5 745.400024 875.5 C 702.599976 937.099976 657.900024 998.599976 589.900024 998.599976 C 521.900024 998.599976 504.399994 959.099976 425.899994 959.099976 C 349.399994 959.099976 322.200012 999.900024 260 999.900024 C 197.800003 999.900024 154.399994 942.900024 104.5 872.900024 C 46.700001 790.700012 0 663 0 541.799988 C 0 347.400024 126.400002 244.299988 250.800003 244.299988 C 316.899994 244.299988 372 287.700012 413.5 287.700012 C 453 287.700012 514.599976 241.700012 589.799988 241.700012 C 618.299988 241.700012 720.700012 244.299988 788.099976 340.900024 Z M 554.099976 159.400024 C 585.200012 122.5 607.200012 71.299988 607.200012 20.099976 C 607.200012 13 606.599976 5.799988 605.299988 0 C 554.700012 1.900024 494.5 33.700012 458.200012 75.799988 C 429.700012 108.200012 403.100006 159.400024 403.100006 211.299988 C 403.100006 219.099976 404.399994 226.900024 405 229.400024 C 408.200012 230 413.399994 230.700012 418.600006 230.700012 C 464 230.700012 521.099976 200.299988 554.099976 159.400024 Z"/>
</svg>
