<?xml version="1.0" encoding="UTF-8"?>
<!-- Generated by Pixelmator Pro 3.4.1 -->
<svg width="381" height="381" viewBox="0 0 381 381" xmlns="http://www.w3.org/2000/svg">
    <g id="-copy">
        <path id="path1" fill="#ffffff" stroke="none" d="M 152.694138 381 C 171.290268 381 185.728928 373.944458 195.516998 358.526733 L 371.213135 81.530853 C 378.064789 70.816864 381 59.580261 381 49.650208 C 381 21.427979 359.956848 0 332.548981 0 C 314.19632 0 302.207123 7.055542 290.950836 25.870361 L 151.960022 256.613159 L 83.686905 174.559677 C 74.143524 163.061722 62.888447 157.574081 47.715694 157.574081 C 20.310278 157.574081 -0 179.00206 -0 207.485596 C -0 220.551437 3.181128 230.742798 13.70332 243.286011 L 112.072357 362.185181 C 122.839249 375.251038 136.054382 381 152.694138 381 Z"/>
    </g>
</svg>
