<?xml version="1.0" encoding="UTF-8"?>
<!-- Generated by Pixelmator Pro 3.4.1 -->
<svg width="512" height="512" viewBox="0 0 512 512" xmlns="http://www.w3.org/2000/svg">
    <g id="Group">
        <g id="g1">
            <path id="githubDark" fill="#ffffff" stroke="none" d="M 257.998871 7 C 135.39592 7.005066 30.890245 95.92218 11.250846 216.941925 C -8.388549 337.9617 62.635044 455.364166 178.944443 494.140564 C 191.443237 496.328369 196.130295 488.829346 196.130295 482.266693 C 196.130295 476.330017 195.817581 456.644165 195.817581 435.708923 C 133.010849 447.27005 116.762405 420.398621 111.762886 406.337463 C 106.215309 392.661896 97.421143 380.542847 86.140343 371.027618 C 77.391182 366.340576 64.89238 354.779175 85.827621 354.467224 C 102.051231 356.227631 116.396355 365.79071 124.261688 380.088989 C 131.166809 392.493591 142.724869 401.640076 156.384415 405.509308 C 170.043976 409.378571 184.681839 407.652466 197.066711 400.712036 C 198.14888 388.003784 203.812546 376.121948 213.003174 367.278687 C 157.383514 361.029297 99.264084 339.467896 99.264084 243.853058 C 98.912811 219.009064 108.080376 194.972137 124.886635 176.671997 C 117.2444 155.079529 118.138603 131.383392 127.386391 110.428314 C 127.386391 110.428314 148.321136 103.86618 196.129791 136.050873 C 237.033081 124.8013 280.214539 124.8013 321.117798 136.050873 C 368.925262 103.553986 389.861237 110.428314 389.861237 110.428314 C 399.11026 131.383118 400.004486 155.079712 392.360992 176.671997 C 409.217865 194.940857 418.393433 218.998718 417.983521 243.853058 C 417.983521 339.780609 359.551147 361.029297 303.931946 367.278687 C 316.003113 379.513489 322.16095 396.390533 320.805359 413.524292 C 320.805359 446.959106 320.492645 473.830475 320.492645 482.2677 C 320.492645 488.829834 325.179688 496.641327 337.678497 494.141571 C 453.773499 455.052002 524.47113 337.62851 504.697205 216.735809 C 484.92334 95.84314 380.498047 7.063751 257.998871 7 Z"/>
        </g>
    </g>
</svg>
