<?xml version="1.0" encoding="UTF-8"?>
<!-- Generated by Pixelmator Pro 3.4.1 -->
<svg width="512" height="512" viewBox="0 0 512 512" xmlns="http://www.w3.org/2000/svg">
    <g id="Group">
        <g id="g1">
            <path id="Path" fill="#453e71" stroke="none" d="M 508 256.878998 C 508 394.945007 396.06601 506.878998 258 506.878998 C 119.932999 506.878998 8 394.945007 8 256.878998 C 8 118.812012 119.932999 6.878998 258 6.878998 C 396.06601 6.878998 508 118.812012 508 256.878998 Z"/>
            <path id="globe" fill="#d85b53" stroke="none" d="M 257.756531 102 C 173.677551 102 105.513092 171.622528 105.513092 257.5 C 105.513092 343.377472 173.677551 413 257.756531 413 C 341.835541 413 410 343.377472 410 257.5 C 410 171.622528 341.835541 102 257.756531 102 Z M 368.772461 184.933319 L 338.526764 184.933319 C 332.640015 166.024506 324.560974 149.458588 314.817383 136.168518 C 336.858582 147.03421 355.530975 163.91037 368.772461 184.933319 Z M 267.906097 184.933319 L 267.906097 124.433472 C 287.088776 130.218079 305.784271 151.946594 317.293884 184.933319 L 267.906097 184.933319 Z M 323.200928 205.666656 C 326.06311 218.355469 327.910339 232.246796 328.498993 247.133331 L 267.906097 247.133331 L 267.906097 205.666656 L 323.200928 205.666656 Z M 247.606979 124.433472 L 247.606979 184.933319 L 198.219208 184.933319 C 209.728806 151.946594 228.424301 130.218079 247.606979 124.433472 Z M 247.606979 205.666656 L 247.606979 247.133331 L 187.014084 247.133331 C 187.602768 232.246796 189.449982 218.355469 192.312164 205.666656 L 247.606979 205.666656 Z M 166.714951 247.133331 L 126.319695 247.133331 C 127.415848 232.5578 130.684006 218.583527 135.982071 205.666656 L 171.708542 205.666656 C 168.906815 219.321136 167.236389 233.192413 166.714951 247.133331 Z M 166.714951 267.866669 C 167.236389 281.807587 168.906815 295.678894 171.708542 309.333313 L 135.982071 309.333313 C 130.610596 296.12793 127.348328 282.127777 126.319695 267.866669 L 166.714951 267.866669 Z M 187.014084 267.866669 L 247.606979 267.866669 L 247.606979 309.333313 L 192.312164 309.333313 C 189.292755 295.708496 187.519119 281.82663 187.014084 267.866669 Z M 247.606979 330.06665 L 247.606979 390.566528 C 228.424301 384.781921 209.728806 363.053406 198.219208 330.06665 L 247.606979 330.06665 Z M 267.906097 390.566528 L 267.906097 330.06665 L 317.293884 330.06665 C 305.784271 363.053406 287.088776 384.781921 267.906097 390.566528 Z M 267.906097 309.333313 L 267.906097 267.866669 L 328.498993 267.866669 C 327.993988 281.82663 326.220337 295.708496 323.200928 309.333313 L 267.906097 309.333313 Z M 348.798126 267.866669 L 389.19339 267.866669 C 388.164764 282.127777 384.902496 296.12793 379.531006 309.333313 L 343.804565 309.333313 C 346.606262 295.678894 348.276703 281.807587 348.798126 267.866669 Z M 348.798126 247.133331 C 348.276703 233.192413 346.606262 219.321136 343.804565 205.666656 L 379.531006 205.666656 C 384.829102 218.583527 388.097229 232.5578 389.19339 247.133331 L 348.798126 247.133331 Z M 200.695694 136.168518 C 190.972412 149.458588 182.873062 166.024506 176.986313 184.933319 L 146.740616 184.933319 C 159.982132 163.91037 178.654495 147.03421 200.695694 136.168518 Z M 146.740616 330.06665 L 176.986313 330.06665 C 182.873062 348.975464 190.952118 365.541412 200.695694 378.831482 C 178.654495 367.965759 159.982132 351.08963 146.740616 330.06665 Z M 314.817383 378.831482 C 324.54068 365.541412 332.640015 348.975464 338.526764 330.06665 L 368.772461 330.06665 C 355.530975 351.08963 336.858582 367.965759 314.817383 378.831482 Z"/>
        </g>
    </g>
</svg>
