<?xml version="1.0" encoding="UTF-8"?>
<!-- Generated by Pixelmator Pro 3.4.1 -->
<svg width="381" height="381" viewBox="0 0 381 381" xmlns="http://www.w3.org/2000/svg">
    <g id="-copy">
        <path id="path1" fill="#000000" stroke="none" d="M 19.610619 125.809128 C 30.998152 125.809128 37.055347 119.509644 37.055347 108.122101 L 37.055347 64.752563 C 37.055347 46.580963 46.989155 37.131744 64.434486 37.131744 L 109.014862 37.131744 C 120.403 37.131744 126.701881 30.832275 126.701881 19.687012 C 126.701881 8.2995 120.403 2 109.014862 2 L 63.949306 2 C 22.760363 2 2.165889 22.352173 2.165889 63.056549 L 2.165889 108.122101 C 2.165889 119.509644 8.465375 125.809128 19.610619 125.809128 Z M 361.478882 125.809128 C 372.866394 125.809128 378.923615 119.509644 378.923615 108.122101 L 378.923615 63.056549 C 378.923615 22.352173 358.571411 2 317.140167 2 L 272.074615 2 C 260.687103 2 254.387619 8.2995 254.387619 19.687012 C 254.387619 30.832275 260.687103 37.131744 272.074615 37.131744 L 316.655609 37.131744 C 334.100342 37.131744 344.034149 46.580963 344.034149 64.752563 L 344.034149 108.122101 C 344.034149 119.509644 350.333618 125.809128 361.478882 125.809128 Z M 63.949306 379 L 109.014862 379 C 120.403 379 126.701881 372.7005 126.701881 361.555267 C 126.701881 350.167725 120.403 343.868256 109.014862 343.868256 L 64.434486 343.868256 C 46.989155 343.868256 37.055347 334.419006 37.055347 316.247437 L 37.055347 273.120178 C 37.055347 261.490356 30.755863 255.190872 19.610619 255.190872 C 8.223087 255.190872 2.165889 261.490356 2.165889 273.120178 L 2.165889 317.943451 C 2.165889 358.647827 22.760363 379 63.949306 379 Z M 272.074615 379 L 317.140167 379 C 358.571411 379 378.923615 358.647827 378.923615 317.943451 L 378.923615 273.120178 C 378.923615 261.490356 372.624115 255.190872 361.478882 255.190872 C 350.091339 255.190872 344.034149 261.490356 344.034149 273.120178 L 344.034149 316.247437 C 344.034149 334.419006 334.100342 343.868256 316.655609 343.868256 L 272.074615 343.868256 C 260.687103 343.868256 254.387619 350.167725 254.387619 361.555267 C 254.387619 372.7005 260.687103 379 272.074615 379 Z"/>
        <path id="path2" fill="#000000" stroke="none" d="M 190.934814 294.869629 C 248.278381 294.869629 296 247.278381 296 189.934814 C 296 132.591263 248.148361 85 190.804794 85 C 133.591263 85 86 132.591263 86 189.934814 C 86 247.278381 133.721619 294.869629 190.934814 294.869629 Z M 190.934814 279.265961 C 142.303314 279.265961 101.733719 238.56633 101.733719 189.934814 C 101.733719 141.303314 142.173294 100.603699 190.804794 100.603699 C 239.56665 100.603699 280.266266 141.303314 280.266266 189.934814 C 280.266266 238.56633 239.69635 279.265961 190.934814 279.265961 Z M 194.185593 267.563171 C 213.170074 267.563171 229.163864 238.436295 233.324844 231.544662 C 238.656433 222.962631 236.185532 214.510635 236.185532 209.439438 C 236.185532 206.05864 246.978409 197.736664 246.978409 189.154633 C 246.978409 180.312546 226.043121 172.510696 226.043121 167.82959 C 226.043121 164.708862 228.383682 162.108246 230.854584 162.108246 C 235.145279 162.108246 246.457962 176.281586 252.569733 176.281586 C 256.730713 176.281586 257.120789 172.770767 259.330994 172.770767 C 264.402191 172.770767 265.052673 202.28775 281.696625 209.049347 C 286.767822 203.588058 289.628174 197.866699 289.628174 189.934814 C 289.628174 136.232117 244.897583 91.241486 190.804794 91.241486 C 158.557159 91.241486 148.155029 104.374573 148.155029 113.866821 C 148.155029 126.999939 137.232117 129.990646 137.232117 138.052551 C 137.232117 143.253784 141.003006 146.764603 146.854401 146.764603 C 158.81723 146.764603 158.81723 133.761536 164.278839 133.761536 C 168.439819 133.891571 172.600815 141.043259 180.792419 141.043259 C 184.303253 141.043259 185.993973 138.572678 186.123688 135.321899 C 186.123688 134.151627 186.773834 133.50148 187.814407 133.50148 C 194.315948 133.50148 201.077225 140.913223 201.077225 145.074203 C 201.077225 149.365219 199.516846 152.355927 197.0466 152.355927 C 192.495514 152.355927 181.18251 147.284729 170.91008 147.284729 C 147.764603 147.284729 128.650421 163.278519 128.650421 182.783127 C 128.650421 199.817154 138.66246 209.699493 156.216614 209.699493 C 166.489044 209.699493 174.160858 216.721161 174.160858 226.213409 C 174.160858 241.296967 172.470459 267.563171 194.185593 267.563171 Z M 220.061707 128.560303 C 216.290817 128.560303 214.860489 130.510773 211.480011 130.510773 C 208.229233 130.510773 205.888687 128.300247 205.888687 125.049469 C 205.888687 119.978271 210.829529 117.24762 219.281845 117.24762 C 226.563248 117.24762 232.024536 121.018524 232.024536 125.829651 C 232.024536 128.560303 230.334473 130.770828 227.993591 130.770828 C 224.222702 130.770828 222.272232 128.560303 220.061707 128.560303 Z"/>
    </g>
</svg>
