<?xml version="1.0" encoding="UTF-8"?>
<!-- Generated by Pixelmator Pro 3.4.1 -->
<svg width="512" height="512" viewBox="0 0 512 512" xmlns="http://www.w3.org/2000/svg">
    <g id="Group">
        <g id="g1">
            <path id="Path" fill="#2a51ca" stroke="none" d="M 508 256.878998 C 508 394.945007 396.06601 506.878998 258 506.878998 C 119.932999 506.878998 8 394.945007 8 256.878998 C 8 118.812012 119.932999 6.878998 258 6.878998 C 396.06601 6.878998 508 118.812012 508 256.878998 Z"/>
            <g id="leetcode">
                <path id="path1" fill="#b3b1b0" stroke="none" d="M 405 291.434906 C 405 280.402069 396.613861 271.421143 386.264984 271.421143 L 236.622711 271.421143 C 226.273834 271.421143 217.887695 280.402069 217.887695 291.434906 C 217.887695 302.467773 226.258987 311.448669 236.622711 311.448669 L 386.264984 311.448669 C 396.613861 311.463562 405 302.482635 405 291.434906 Z"/>
                <path id="path2" fill="#e7a41f" stroke="none" d="M 129.654663 348.413177 L 193.784943 413.257172 C 208.252533 427.813965 228.251434 434.847046 250.331985 434.847046 C 272.412567 434.847046 292.411438 427.2341 306.908783 412.63266 L 345.389923 373.422913 C 352.973145 365.780212 352.705505 353.126648 344.810028 345.171722 C 336.914551 337.216766 324.365051 336.949127 316.796722 344.591827 L 277.007111 383.355469 C 270.137604 390.299316 260.621399 393.198792 250.108963 393.198792 C 239.596542 393.198792 230.0952 390.299316 223.195953 383.355469 L 159.288712 318.48175 C 152.404343 311.537903 148.939835 301.382324 148.939835 290.780701 C 148.939835 280.179016 152.404343 270.603363 159.288712 263.659515 L 223.002655 198.53302 C 229.887024 191.589142 239.596542 188.942444 250.094086 188.942444 C 260.591644 188.942444 270.107849 191.841919 276.992218 198.785767 L 316.78183 237.534546 C 324.365051 245.192139 336.914551 244.9245 344.810028 236.969543 C 352.705505 228.999725 352.973145 216.346161 345.389923 208.703461 L 306.908783 169.508606 C 297.126068 159.733215 284.807831 152.884064 271.34198 149.732758 L 270.836426 149.628662 L 307.221039 112.411407 C 314.833984 104.768707 314.566345 92.10025 306.670868 84.145294 C 298.775391 76.190338 286.211029 75.937561 278.612946 83.580261 L 129.654663 233.757813 C 115.187073 248.359253 107.618713 268.506836 107.618713 290.780701 C 107.618713 313.054535 115.187073 333.841492 129.654663 348.413177 Z"/>
                <path id="path3" fill="#070706" stroke="none" d="M 198.543045 417.212311 C 195.951553 415.765625 193.578568 413.958344 191.495102 411.844604 C 171.763855 392.02417 151.94339 372.292877 132.25676 352.412964 C 102.682182 322.555878 98.028168 279.004395 120.569672 243.571411 C 124.171425 238.155334 128.354675 233.149414 133.044815 228.642853 L 276.129822 85.260468 C 285.422974 75.952454 298.403687 75.565857 307.042603 84.264252 C 315.369293 92.635529 314.878601 105.898743 305.882813 114.983734 C 294.448486 126.522125 282.999329 138.030792 271.55014 149.554291 C 270.940521 151.368317 269.468475 152.528137 268.20462 153.821747 C 255.372604 166.847015 242.183746 179.530365 229.530182 192.748932 C 227.879715 194.473755 225.634476 195.514587 223.998871 197.283997 C 202.84021 218.442688 181.428757 239.363464 160.567444 260.804626 C 143.691071 278.15686 144.256088 304.48996 161.578552 322.169312 C 181.027283 342.034332 200.818008 361.572296 220.474915 381.258942 C 221.47113 382.255157 222.497101 383.221649 223.508194 384.203003 C 230.466919 388.708313 230.556137 402.789337 226.229248 409.049194 C 221.456268 415.963318 215.226135 420.200989 206.408783 419.873901 C 203.449829 419.784668 201.011307 418.595154 198.543045 417.212311 Z"/>
            </g>
        </g>
    </g>
</svg>
