<?xml version="1.0" encoding="UTF-8"?>
<!-- Generated by Pixelmator Pro 3.4.1 -->
<svg width="512" height="512" viewBox="0 0 512 512" xmlns="http://www.w3.org/2000/svg">
    <g id="Group">
        <g id="g1">
            <path id="Path" fill="#5d0b03" stroke="none" d="M 508 256.878998 C 508 394.945007 396.06601 506.878998 258 506.878998 C 119.932999 506.878998 8 394.945007 8 256.878998 C 8 118.812012 119.932999 6.878998 258 6.878998 C 396.06601 6.878998 508 118.812012 508 256.878998 Z"/>
            <g id="g2">
                <path id="Path-copy-3" fill="#ff9800" stroke="none" d="M 185.883591 269.784119 L 308.905792 295.916504 L 314.058502 271.057434 L 191.036301 244.734619 Z M 183.158508 302.294922 L 308.893921 302.294922 L 308.893921 327.606201 L 183.158508 327.606201 Z M 202.020004 210.188904 L 315.926819 264.048309 L 326.482117 240.914703 L 212.515793 186.912506 Z M 315.93869 264.060181 L 315.926819 264.048309 L 315.914886 264.060181 Z"/>
                <path id="Path-copy-2" fill="#757575" stroke="none" d="M 133 276.805115 L 133 378.799988 L 359.004791 378.799988 L 359.004791 276.805115 L 333.860107 276.805115 L 333.860107 353.298309 L 158.144699 353.298309 L 158.144699 276.805115 Z"/>
                <path id="Path-copy" fill="#ff9800" stroke="none" d="M 233.590698 153.449707 L 330.087799 235.238403 L 346.105225 215.603394 L 249.608109 133.814697 Z M 371 195.385284 L 296.006195 93.200012 L 275.883301 108.503387 L 350.877106 210.688721 Z"/>
            </g>
        </g>
    </g>
</svg>
