<?xml version="1.0" encoding="UTF-8"?>
<!-- Generated by Pixelmator Pro 3.4.1 -->
<svg width="512" height="512" viewBox="0 0 512 512" xmlns="http://www.w3.org/2000/svg">
    <g id="Group">
        <g id="g1">
            <path id="Path" fill="#5d0b03" stroke="none" d="M 508 256.878998 C 508 394.945007 396.06601 506.878998 258 506.878998 C 119.932999 506.878998 8 394.945007 8 256.878998 C 8 118.812012 119.932999 6.878998 258 6.878998 C 396.06601 6.878998 508 118.812012 508 256.878998 Z"/>
            <g id="g2">
                <path id="Path-copy-3" fill="#ff9800" stroke="none" d="M 176.511993 283.638672 L 328.135986 315.84668 L 334.486664 285.208008 L 182.862671 252.76535 Z M 173.153336 323.708008 L 328.121338 323.708008 L 328.121338 354.903992 L 173.153336 354.903992 Z M 196.400009 210.188019 L 336.789337 276.569336 L 349.798676 248.057343 L 209.335999 181.5 Z M 336.803986 276.583984 L 336.789337 276.569336 L 336.774658 276.583984 Z"/>
                <path id="Path-copy-2" fill="#757575" stroke="none" d="M 111.333336 292.291992 L 111.333336 418 L 389.88266 418 L 389.88266 292.291992 L 358.891998 292.291992 L 358.891998 386.569336 L 142.324005 386.569336 L 142.324005 292.291992 Z"/>
                <path id="Path-copy" fill="#ff9800" stroke="none" d="M 235.310669 140.257324 L 354.242676 241.06134 L 373.984009 216.861328 L 255.052002 116.057343 Z M 404.666656 191.942657 L 312.237335 66 L 287.436005 84.861328 L 379.865326 210.804016 Z"/>
            </g>
        </g>
    </g>
</svg>
