<svg width="32" height="32" viewBox="0 0 32 32" fill="none" xmlns="http://www.w3.org/2000/svg">
<path fill-rule="evenodd" clip-rule="evenodd" d="M16.393 1.63506C16.2519 1.67985 15.7822 2.43399 15.6195 2.87677C15.5202 3.14697 15.493 3.40945 15.5151 3.88214C15.5447 4.51352 15.5506 4.53054 15.9713 5.17763C16.3233 5.71917 16.4042 5.90462 16.4358 6.24268C16.4807 6.72397 16.3248 7.27493 15.9762 7.86642C15.632 8.45043 15.6803 8.6918 16.1412 8.6918C16.3922 8.6918 16.5276 8.58003 16.8025 8.1458C17.1764 7.55557 17.3503 6.91659 17.3143 6.26586C17.2836 5.70924 17.2641 5.65659 16.8489 5.0053L16.4156 4.32555V3.69731C16.4156 3.08729 16.4254 3.05299 16.7531 2.51333C16.9387 2.2077 17.0906 1.93203 17.0906 1.9008C17.0906 1.86958 17.0191 1.78747 16.9317 1.71836C16.7772 1.59611 16.6012 1.56891 16.393 1.63506ZM10.357 4.27843C9.78736 4.91936 9.49522 5.88446 9.63434 6.66573C9.69024 6.97941 9.81785 7.25332 10.1247 7.71803L10.5394 8.34627L10.5367 8.94309C10.5343 9.49249 10.5098 9.58484 10.2296 10.1053C10.0621 10.4163 9.90822 10.7439 9.88765 10.8334C9.83937 11.0431 10.054 11.2179 10.3284 11.1924C10.5968 11.1676 10.815 10.9056 11.1432 10.2143C11.3812 9.71319 11.4042 9.6023 11.4084 8.93694L11.4129 8.20831L10.9775 7.5234C10.5838 6.90402 10.5393 6.79251 10.5129 6.35815C10.4796 5.80995 10.6188 5.34782 10.9781 4.81532C11.197 4.49071 11.2083 4.36287 11.0335 4.18419C10.8928 4.04033 10.5228 4.09191 10.357 4.27843ZM22.0472 4.36494C21.9334 4.50749 21.747 4.81143 21.633 5.04029C21.4511 5.40549 21.4253 5.54935 21.422 6.21642L21.4183 6.97652L21.855 7.66136L22.2918 8.34627L22.2907 8.94309C22.2899 9.49305 22.266 9.58433 21.9867 10.1053C21.5888 10.8477 21.5674 10.9318 21.7385 11.0813C21.9146 11.2353 22.1871 11.24 22.3565 11.0919C22.5457 10.9265 22.9357 10.2183 23.0797 9.77852C23.2388 9.2929 23.2403 8.55736 23.0831 8.13851C23.016 7.95984 22.8105 7.59427 22.6265 7.32607C22.2965 6.84547 22.2918 6.82951 22.2918 6.21026C22.2918 5.59754 22.3003 5.56776 22.6407 5.00373C22.979 4.44303 22.9856 4.4206 22.8572 4.26555C22.6408 4.00414 22.3018 4.04573 22.0472 4.36494Z" fill="#1B1B1B"/>
<path fill-rule="evenodd" clip-rule="evenodd" d="M7.74175 25.2698L14.3362 30.6161C14.8381 30.9949 15.4497 31.1999 16.0784 31.1999C16.7072 31.1999 17.3188 30.9949 17.8207 30.6161L24.4152 25.2698C24.6441 25.0831 24.827 24.8462 24.9496 24.5774C25.0723 24.3087 25.1314 24.0153 25.1224 23.72V15.4925C25.1443 15.1973 25.1068 14.9007 25.0121 14.6202C24.9174 14.3397 24.7675 14.0811 24.5711 13.8595C24.6566 14.1999 24.64 14.5579 24.5235 14.889C24.407 15.22 24.1957 15.5095 23.9158 15.7213L17.311 21.0676C16.8233 21.4737 16.2087 21.6961 15.574 21.6961C14.9393 21.6961 14.3247 21.4737 13.8369 21.0676L7.2425 15.7213C6.9061 15.461 6.66777 15.0944 6.56639 14.6812L6.39999 15.7213L7.00323 23.7928C7.00838 24.0793 7.07518 24.3614 7.19901 24.6198C7.32285 24.8783 7.50083 25.107 7.72092 25.2906L7.74175 25.2698Z" fill="#1B1B1B"/>
<path fill-rule="evenodd" clip-rule="evenodd" d="M17.3943 17.2712L17.7063 17.0216L20.0778 15.0973C20.181 15.022 20.2649 14.9234 20.3228 14.8096C20.3807 14.6957 20.4108 14.5698 20.4108 14.442C20.4108 14.3143 20.3807 14.1884 20.3228 14.0745C20.2649 13.9607 20.181 13.8621 20.0778 13.7868L16.5726 10.968C16.3392 10.7908 16.0543 10.6949 15.7613 10.6949C15.4683 10.6949 15.1833 10.7908 14.9499 10.968L13.9826 11.7481C13.0049 12.549 13.6706 13.5683 14.3259 14.5253C14.5879 14.9215 14.88 15.2971 15.1996 15.6486C15.5844 16.0647 16.843 17.7289 17.3943 17.292V17.2712Z" fill="#E07153"/>
<path fill-rule="evenodd" clip-rule="evenodd" d="M11.216 15.2951L14.7212 18.1347C14.9051 18.2721 15.1209 18.3604 15.3484 18.3913C15.5758 18.4223 15.8075 18.3948 16.0214 18.3115C16.7807 18.0202 15.9173 17.521 15.5429 17.1777C15.1684 16.8345 14.7524 16.4496 14.5028 16.1376C14.1655 15.7692 13.8561 15.3764 13.577 14.9622C12.7137 13.7141 13.0778 12.5075 12.1105 13.298L11.2575 13.9845C11.1543 14.0609 11.0704 14.1605 11.0126 14.2752C10.9548 14.3899 10.9247 14.5166 10.9247 14.645C10.9247 14.7734 10.9548 14.9001 11.0126 15.0148C11.0704 15.1295 11.1543 15.2291 11.2575 15.3055L11.216 15.2951Z" fill="#E07153"/>
</svg>
