<?xml version="1.0" encoding="UTF-8"?>
<!-- Generated by Pixelmator Pro 3.4.1 -->
<svg width="381" height="381" viewBox="0 0 381 381" xmlns="http://www.w3.org/2000/svg">
    <g id="-copy">
        <path id="path1" fill="#ffffff" stroke="none" d="M 19.610619 125.809128 C 30.998152 125.809128 37.055347 119.509644 37.055347 108.122101 L 37.055347 64.752563 C 37.055347 46.580963 46.989155 37.131744 64.434486 37.131744 L 109.014862 37.131744 C 120.403 37.131744 126.701881 30.832275 126.701881 19.687012 C 126.701881 8.2995 120.403 2 109.014862 2 L 63.949306 2 C 22.760363 2 2.165889 22.352173 2.165889 63.056549 L 2.165889 108.122101 C 2.165889 119.509644 8.465375 125.809128 19.610619 125.809128 Z M 361.478882 125.809128 C 372.866394 125.809128 378.923615 119.509644 378.923615 108.122101 L 378.923615 63.056549 C 378.923615 22.352173 358.571411 2 317.140167 2 L 272.074615 2 C 260.687103 2 254.387619 8.2995 254.387619 19.687012 C 254.387619 30.832275 260.687103 37.131744 272.074615 37.131744 L 316.655609 37.131744 C 334.100342 37.131744 344.034149 46.580963 344.034149 64.752563 L 344.034149 108.122101 C 344.034149 119.509644 350.333618 125.809128 361.478882 125.809128 Z M 63.949306 379 L 109.014862 379 C 120.403 379 126.701881 372.7005 126.701881 361.555267 C 126.701881 350.167725 120.403 343.868256 109.014862 343.868256 L 64.434486 343.868256 C 46.989155 343.868256 37.055347 334.419006 37.055347 316.247437 L 37.055347 273.120178 C 37.055347 261.490356 30.755863 255.190872 19.610619 255.190872 C 8.223087 255.190872 2.165889 261.490356 2.165889 273.120178 L 2.165889 317.943451 C 2.165889 358.647827 22.760363 379 63.949306 379 Z M 272.074615 379 L 317.140167 379 C 358.571411 379 378.923615 358.647827 378.923615 317.943451 L 378.923615 273.120178 C 378.923615 261.490356 372.624115 255.190872 361.478882 255.190872 C 350.091339 255.190872 344.034149 261.490356 344.034149 273.120178 L 344.034149 316.247437 C 344.034149 334.419006 334.100342 343.868256 316.655609 343.868256 L 272.074615 343.868256 C 260.687103 343.868256 254.387619 350.167725 254.387619 361.555267 C 254.387619 372.7005 260.687103 379 272.074615 379 Z"/>
        <g id="g1">
            <path id="path2" fill="#ffffff" stroke="none" d="M 93.320702 310 L 248.780609 310 C 261.884857 310 269.627716 304.043671 269.627716 294.066833 C 269.627716 263.838562 231.805115 222.144318 171.050644 222.144318 C 110.445488 222.144318 72.622498 263.838562 72.622498 294.066833 C 72.622498 304.043671 80.365707 310 93.320702 310 Z M 171.050644 201.297195 C 196.0672 201.297195 218.105545 178.812088 218.105545 149.477219 C 218.105545 120.29129 196.0672 99.146332 171.050644 99.146332 C 146.183029 99.146332 124.14502 120.886902 124.14502 149.775055 C 124.14502 178.812088 146.183029 201.297195 171.050644 201.297195 Z"/>
            <path id="path3" fill="#ffffff" stroke="none" d="M 285.560852 174.79158 C 292.261719 174.79158 296.282623 170.622162 296.282623 165.41037 C 296.282623 165.112579 296.282623 164.814743 296.282623 164.516937 C 296.282623 158.262802 300.302765 154.242279 308.045959 149.030502 C 319.21405 141.882919 328 135.033157 328 120.29126 C 328 99.741974 309.683929 89.31842 289.432861 89.31842 C 268.883179 89.31842 255.33255 98.55072 251.759125 108.825348 C 251.014221 110.910065 250.567505 112.994781 250.567505 115.079498 C 250.567505 120.886902 255.33255 124.013947 259.651245 124.013947 C 264.118134 124.013947 266.947357 122.078156 269.47879 118.951111 L 272.010254 115.972961 C 276.924194 109.718811 282.284912 107.187378 288.687927 107.187378 C 298.36731 107.187378 304.770355 112.845886 304.770355 121.333649 C 304.770355 129.225754 299.707123 132.799545 289.730255 139.649307 C 281.838165 145.3078 274.988403 151.561935 274.988403 163.474594 C 274.988403 163.623489 274.988403 164.070221 274.988403 164.219116 C 274.988403 171.217789 278.711456 174.79158 285.560852 174.79158 Z M 285.263062 210.52948 C 292.559937 210.52948 298.962952 204.722076 298.962952 197.425598 C 298.962952 189.980194 292.708466 184.321686 285.263062 184.321686 C 277.817657 184.321686 271.563507 190.129089 271.563507 197.425598 C 271.563507 204.573181 277.966553 210.52948 285.263062 210.52948 Z"/>
        </g>
    </g>
</svg>
