<?xml version="1.0" encoding="UTF-8"?>
<!-- Generated by Pixelmator Pro 3.4.1 -->
<svg width="381" height="381" viewBox="0 0 381 381" xmlns="http://www.w3.org/2000/svg">
    <g id="-copy">
        <path id="path1" fill="#ffffff" stroke="none" d="M 19.610619 125.809128 C 30.998152 125.809128 37.055347 119.509644 37.055347 108.122101 L 37.055347 64.752563 C 37.055347 46.580963 46.989155 37.131744 64.434486 37.131744 L 109.014862 37.131744 C 120.403 37.131744 126.701881 30.832275 126.701881 19.687012 C 126.701881 8.2995 120.403 2 109.014862 2 L 63.949306 2 C 22.760363 2 2.165889 22.352173 2.165889 63.056549 L 2.165889 108.122101 C 2.165889 119.509644 8.465375 125.809128 19.610619 125.809128 Z M 361.478882 125.809128 C 372.866394 125.809128 378.923615 119.509644 378.923615 108.122101 L 378.923615 63.056549 C 378.923615 22.352173 358.571411 2 317.140167 2 L 272.074615 2 C 260.687103 2 254.387619 8.2995 254.387619 19.687012 C 254.387619 30.832275 260.687103 37.131744 272.074615 37.131744 L 316.655609 37.131744 C 334.100342 37.131744 344.034149 46.580963 344.034149 64.752563 L 344.034149 108.122101 C 344.034149 119.509644 350.333618 125.809128 361.478882 125.809128 Z M 63.949306 379 L 109.014862 379 C 120.403 379 126.701881 372.7005 126.701881 361.555267 C 126.701881 350.167725 120.403 343.868256 109.014862 343.868256 L 64.434486 343.868256 C 46.989155 343.868256 37.055347 334.419006 37.055347 316.247437 L 37.055347 273.120178 C 37.055347 261.490356 30.755863 255.190872 19.610619 255.190872 C 8.223087 255.190872 2.165889 261.490356 2.165889 273.120178 L 2.165889 317.943451 C 2.165889 358.647827 22.760363 379 63.949306 379 Z M 272.074615 379 L 317.140167 379 C 358.571411 379 378.923615 358.647827 378.923615 317.943451 L 378.923615 273.120178 C 378.923615 261.490356 372.624115 255.190872 361.478882 255.190872 C 350.091339 255.190872 344.034149 261.490356 344.034149 273.120178 L 344.034149 316.247437 C 344.034149 334.419006 334.100342 343.868256 316.655609 343.868256 L 272.074615 343.868256 C 260.687103 343.868256 254.387619 350.167725 254.387619 361.555267 C 254.387619 372.7005 260.687103 379 272.074615 379 Z"/>
        <g id="g1">
            <path id="path2" fill="#ffffff" stroke="none" d="M 106.046272 292.458221 L 278.823639 292.458221 C 301.07132 292.458221 312 281.789734 312 259.932373 L 312 161.574158 C 312 139.716782 301.07132 129.048309 278.823639 129.048309 L 106.046272 129.048309 C 84.058792 129.048309 73 139.716782 73 161.574158 L 73 259.932373 C 73 281.789734 84.058792 292.458221 106.046272 292.458221 Z M 176.43222 225.064636 C 169.016327 225.064636 164.723236 220.901321 164.723236 213.485428 L 164.723236 205.158813 C 134.538925 203.077164 104.485031 196.832199 73 184.862686 L 73 165.737473 C 112.161133 183.041229 150.801849 189.156097 192.434952 189.156097 C 234.068039 189.156097 272.838867 183.041229 312 165.737473 L 312 184.862686 C 280.514984 196.832199 250.330978 203.077164 220.277084 205.158813 L 220.277084 213.485428 C 220.277084 220.901321 215.983673 225.064636 208.56778 225.064636 Z M 139.873169 139.066269 L 157.827438 139.066269 L 157.827438 121.632416 C 157.827438 114.086426 162.250946 109.792999 169.797272 109.792999 L 215.072952 109.792999 C 222.749054 109.792999 227.042465 114.086426 227.042465 121.632416 L 227.042465 138.806061 L 245.126831 138.806061 L 245.126831 123.063538 C 245.126831 102.247009 234.458359 92.879547 214.812744 92.879547 L 170.057159 92.879547 C 151.71257 92.879547 139.873169 102.247009 139.873169 123.063538 Z"/>
        </g>
    </g>
</svg>
