<?xml version="1.0" encoding="UTF-8"?>
<!-- Generated by Pixelmator Pro 3.4.3 -->
<svg width="496" height="512" viewBox="0 0 496 512" xmlns="http://www.w3.org/2000/svg">
    <path id="envelope-round-svgrepo-com" fill="#ff9400" stroke="none" d="M 496 256 C 496 392.966614 384.966644 504 248 504 C 111.033379 504 0 392.966614 0 256 C 0 119.033356 111.033379 8 248 8 C 384.966644 8 496 119.033356 496 256 Z M 191.208008 263.935974 L 72.322998 176.268005 L 72.322998 340.134003 Z M 103.043999 168.115021 L 219.076996 253.674988 C 236.43869 265.034454 258.879303 265.034454 276.241028 253.674988 L 392.273987 168.115021 Z M 382.973999 344.008972 L 281.914001 279.187988 C 260.26886 289.620667 235.049149 289.620667 213.404007 279.187988 L 112.250999 344.008972 Z M 422.994995 176.299011 L 304.110016 263.935974 L 422.994995 340.195984 Z"/>
</svg>
