<?xml version="1.0" encoding="UTF-8"?>
<!-- Generated by Pixelmator Pro 3.4.3 -->
<svg width="496" height="512" viewBox="0 0 496 512" xmlns="http://www.w3.org/2000/svg">
    <path id="linkedin-round-svgrepo-com" fill="#0e76a8" stroke="none" d="M 248 8 C 111.018753 8 0 119.018738 0 256 C 0 392.981262 111.018753 504 248 504 C 384.981262 504 496 392.981262 496 256 C 496 119.018738 384.981262 8 248 8 Z M 178.637497 359.753113 L 130.296875 359.753113 L 130.296875 205.043762 L 178.637497 205.043762 L 178.637497 359.753113 Z M 153.159378 185.668762 L 152.771881 185.668762 C 135.237503 185.668762 123.903122 173.850006 123.903122 158.834381 C 123.903122 143.528137 135.625 132 153.449997 132 C 171.274994 132 182.221878 143.528137 182.609375 158.834381 C 182.706253 173.753113 171.371872 185.668762 153.159378 185.668762 Z M 372 359.753113 L 317.168762 359.753113 L 317.168762 279.734375 C 317.168762 258.809387 308.643738 244.471863 289.753113 244.471863 C 275.318756 244.471863 267.278137 254.159363 263.596863 263.459412 C 262.240631 266.753113 262.434387 271.403137 262.434387 276.149963 L 262.434387 359.753113 L 208.087494 359.753113 C 208.087494 359.753113 208.765625 217.928131 208.087494 205.043762 L 262.434387 205.043762 L 262.434387 229.359375 C 265.631256 218.703125 282.971863 203.590637 310.678131 203.590637 C 345.068756 203.590637 372 225.871887 372 273.728088 L 372 359.753113 Z"/>
</svg>
