<?xml version="1.0" encoding="UTF-8"?>
<!-- Generated by Pixelmator Pro 3.3.13 -->
<svg width="256" height="256" viewBox="0 0 256 256" xmlns="http://www.w3.org/2000/svg">
    <g id="SVGRepobgCarrier"/>
    <g id="SVGRepotracerCarrier"/>
    <g id="SVGRepoiconCarrier">
        <path id="Path" fill="#000000" stroke="none" d="M 102.395691 230.383392 L 102.395691 179.187073 L 38.400311 179.187073 C 31.331575 179.187073 25.601236 173.456757 25.601236 166.388 L 25.601236 127.990784 L 230.386459 127.990784 L 230.386459 166.388 C 230.386459 173.456757 224.656113 179.187073 217.587402 179.187073 L 153.591995 179.187073 L 153.591995 229.013885 C 153.877243 241.874832 144.904205 253.09111 132.294342 255.635971 C 124.857399 256.903412 117.240074 254.825745 111.476555 249.95784 C 105.713051 245.089951 102.390312 237.927551 102.395691 230.383392 Z M 230.386459 12.799088 C 230.386459 5.730347 224.656113 0 217.587402 0 L 127.993851 0 L 102.395691 51.19632 L 76.797546 0 L 38.400311 0 C 31.331575 0 25.601236 5.730347 25.601236 12.799088 L 25.601236 102.392624 L 230.386459 102.392624 Z"/>
    </g>
</svg>
