<?xml version="1.0" encoding="UTF-8"?>
<!-- Generated by Pixelmator Pro 3.3.13 -->
<svg width="256" height="256" viewBox="0 0 256 256" xmlns="http://www.w3.org/2000/svg">
    <g id="SVGRepobgCarrier"/>
    <g id="SVGRepotracerCarrier"/>
    <g id="SVGRepoiconCarrier">
        <path id="Path" fill="#f1f1f5" stroke="#f1f1f5" stroke-width="11.875" d="M 104.25 222.99913 L 104.25 175.49913 L 44.874996 175.49913 C 38.316616 175.49913 33 170.182526 33 163.62413 L 33 127.99913 L 223 127.99913 L 223 163.62413 C 223 170.182526 217.68338 175.49913 211.125015 175.49913 L 151.75 175.49913 L 151.75 221.728516 C 152.014648 233.660904 143.689438 244.067383 131.990005 246.428513 C 125.089996 247.604431 118.022636 245.676788 112.675232 241.160324 C 107.32785 236.64389 104.245003 229.998611 104.25 222.99913 Z M 223 21.12413 C 223 14.56575 217.68338 9.249115 211.125015 9.249115 L 128 9.249115 L 104.25 56.74913 L 80.5 9.249115 L 44.874996 9.249115 C 38.316616 9.249115 33 14.56575 33 21.12413 L 33 104.24913 L 223 104.24913 Z"/>
    </g>
</svg>
