<?xml version="1.0" encoding="UTF-8"?>
<!-- Generated by Pixelmator Pro 3.3.13 -->
<svg width="256" height="256" viewBox="0 0 256 256" xmlns="http://www.w3.org/2000/svg">
    <g id="SVGRepobgCarrier"/>
    <g id="SVGRepotracerCarrier"/>
    <g id="SVGRepoiconCarrier">
        <path id="Path" fill="#9e7d5b" stroke="none" d="M 7.156473 7.156479 C 16.701323 -2.385498 32.173527 -2.385498 41.71838 7.156479 L 128.147568 93.585678 L 214.576767 7.156479 C 224.167542 -2.106598 239.412567 -1.974121 248.840912 7.454224 C 258.269257 16.882568 258.401733 32.127594 249.138657 41.718384 L 162.709457 128.147568 L 249.138657 214.576767 C 258.401733 224.167542 258.269257 239.412567 248.840912 248.840912 C 239.412567 258.269257 224.167542 258.401733 214.576767 249.138657 L 128.147568 162.709457 L 41.71838 249.138657 C 32.127594 258.401733 16.882578 258.269257 7.454222 248.840912 C -1.974134 239.412567 -2.106606 224.167542 7.156473 214.576767 L 93.58567 128.147568 L 7.156473 41.718384 C -2.385491 32.173508 -2.385491 16.70134 7.156473 7.156479 Z"/>
    </g>
</svg>
