<?xml version="1.0" encoding="UTF-8"?>
<!-- Generated by Pixelmator Pro 3.3.13 -->
<svg width="256" height="256" viewBox="0 0 256 256" xmlns="http://www.w3.org/2000/svg">
    <g id="SVGRepobgCarrier"/>
    <g id="SVGRepotracerCarrier"/>
    <g id="SVGRepoiconCarrier">
        <path id="Path" fill="#9e7d5b" fill-rule="evenodd" stroke="none" d="M 156.101959 1.948685 C 151.362106 0 145.352509 0 133.333298 0 C 121.314102 0 115.304512 0 110.564667 1.948685 C 104.244026 4.546951 99.222458 9.530624 96.604477 15.803268 C 95.409348 18.666763 94.941635 21.996811 94.758591 26.854279 C 94.489655 33.992706 90.800964 40.600189 84.567497 44.171906 C 78.334015 47.743484 70.723907 47.610107 64.360374 44.272141 C 60.030014 42.000641 56.890305 40.737549 53.793983 40.333069 C 47.011269 39.446793 40.151615 41.270905 34.724163 45.404175 C 30.653503 48.504074 27.648706 53.669128 21.639231 63.999115 C 15.62976 74.329224 12.625086 79.494141 11.955392 84.542847 C 11.062338 91.274246 12.900417 98.082047 17.065151 103.468796 C 18.96608 105.927689 21.637569 107.993607 25.783873 110.579208 C 31.879362 114.380798 35.801407 120.856323 35.801025 128 C 35.80064 135.143677 31.878721 141.61792 25.783873 145.418243 C 21.636929 148.005127 18.96493 150.072311 17.063873 152.531204 C 12.899136 157.91745 11.061185 164.724487 11.954115 171.456009 C 12.623809 176.504318 15.628611 181.67041 21.637949 192 C 27.647425 202.32959 30.652227 207.495682 34.722881 210.594559 C 40.150333 214.727692 47.009987 216.551697 53.792702 215.665924 C 56.888897 215.261444 60.028351 213.998077 64.358337 211.727371 C 70.722366 208.389114 78.332993 208.256012 84.566841 211.827209 C 90.800705 215.399689 94.48954 222.007034 94.758591 229.146881 C 94.941635 234.003204 95.409348 237.333771 96.604477 240.197128 C 99.222458 246.469116 104.244026 251.453445 110.564667 254.051834 C 115.304512 256 121.314102 256 133.333298 256 C 145.352509 256 151.362106 256 156.101959 254.051834 C 162.422592 251.453445 167.444016 246.469116 170.06163 240.197128 C 171.257156 237.333771 171.725632 234.003204 171.908661 229.145615 C 172.177475 222.007034 175.865158 215.399689 182.09874 211.827209 C 188.332367 208.254715 195.943222 208.389114 202.307373 211.727371 C 206.637634 213.998077 209.776169 215.260162 212.872528 215.664642 C 219.655228 216.551697 226.514755 214.727692 231.941956 210.594559 C 236.013626 207.494415 239.017792 202.32959 245.027405 191.998734 C 251.036987 181.669128 254.041153 176.504318 254.711868 171.456009 C 255.604034 164.724487 253.765945 157.916168 249.602112 152.529922 C 247.700027 150.071045 245.028656 148.003845 240.88147 145.418243 C 234.787384 141.61792 230.865448 135.142395 230.865448 127.998718 C 230.865448 120.855042 234.787384 114.38208 240.88147 110.581772 C 245.029938 107.994888 247.701309 105.92897 249.603363 103.468796 C 253.767227 98.082947 255.605316 91.275146 254.71315 84.543625 C 254.042435 79.495056 251.038254 74.330002 245.028656 64.000015 C 239.019073 53.670029 236.014893 48.504974 231.943207 45.40506 C 226.516022 41.271805 219.656509 39.447693 212.873779 40.333954 C 209.777466 40.738434 206.637634 42.001404 202.30867 44.272644 C 195.944519 47.610748 188.333633 47.744263 182.100037 44.172287 C 175.86644 40.600449 172.177475 33.992447 171.907394 26.853638 C 171.72435 21.996552 171.257156 18.666626 170.06163 15.803268 C 167.444016 9.530624 162.422592 4.546951 156.101959 1.948685 Z M 133.333298 166.399994 C 154.702927 166.399994 172.025162 149.208328 172.025162 128 C 172.025162 106.791687 154.702927 89.600006 133.333298 89.600006 C 111.963707 89.600006 94.640968 106.791687 94.640968 128 C 94.640968 149.208328 111.963707 166.399994 133.333298 166.399994 Z"/>
    </g>
</svg>
