<?xml version="1.0" encoding="UTF-8"?>
<!-- Generated by Pixelmator Pro 3.3.13 -->
<svg width="256" height="256" viewBox="0 0 256 256" xmlns="http://www.w3.org/2000/svg">
    <g id="SVGRepobgCarrier"/>
    <g id="SVGRepotracerCarrier"/>
    <g id="SVGRepoiconCarrier">
        <path id="Path" fill="none" stroke="#000000" stroke-width="25.444445" stroke-linecap="round" stroke-linejoin="round" d="M 243 128.5 C 243 191.737091 191.737076 243 128.5 243 M 243 128.5 C 243 65.263443 191.737076 14 128.5 14 M 243 128.5 C 243 149.579468 191.737076 166.666656 128.5 166.666656 C 65.263428 166.666656 14 149.579468 14 128.5 M 243 128.5 C 243 107.420547 191.737076 90.333328 128.5 90.333328 C 65.263428 90.333328 14 107.420547 14 128.5 M 128.5 243 C 65.263428 243 14 191.737091 14 128.5 M 128.5 243 C 107.42054 243 90.333336 191.737091 90.333336 128.5 C 90.333336 65.263443 107.42054 14 128.5 14 M 128.5 243 C 149.579453 243 166.666672 191.737091 166.666672 128.5 C 166.666672 65.263443 149.579453 14 128.5 14 M 14 128.5 C 14 65.263443 65.263428 14 128.5 14"/>
    </g>
</svg>
