<?xml version="1.0" encoding="UTF-8"?>
<!-- Generated by Pixelmator Pro 3.3.13 -->
<svg width="256" height="256" viewBox="0 0 256 256" xmlns="http://www.w3.org/2000/svg">
    <g id="SVGRepobgCarrier"/>
    <g id="SVGRepotracerCarrier"/>
    <g id="SVGRepoiconCarrier">
        <path id="Path" fill="none" stroke="#f1f1f5" stroke-width="25" stroke-linecap="round" stroke-linejoin="round" d="M 242 129.5 C 242 191.632507 191.632492 242 129.5 242 M 242 129.5 C 242 67.368011 191.632492 17 129.5 17 M 242 129.5 C 242 150.211258 191.632492 167 129.5 167 C 67.367996 167 17 150.211258 17 129.5 M 242 129.5 C 242 108.788757 191.632492 92 129.5 92 C 67.367996 92 17 108.788757 17 129.5 M 129.5 242 C 67.367996 242 17 191.632507 17 129.5 M 129.5 242 C 108.788742 242 92 191.632507 92 129.5 C 92 67.368011 108.788742 17 129.5 17 M 129.5 242 C 150.211243 242 167 191.632507 167 129.5 C 167 67.368011 150.211243 17 129.5 17 M 17 129.5 C 17 67.368011 67.367996 17 129.5 17"/>
    </g>
</svg>
