<?xml version="1.0" encoding="UTF-8"?>
<!-- Generated by Pixelmator Pro 3.3.13 -->
<svg width="256" height="256" viewBox="0 0 256 256" xmlns="http://www.w3.org/2000/svg">
    <g id="SVGRepobgCarrier"/>
    <g id="SVGRepotracerCarrier"/>
    <g id="SVGRepoiconCarrier">
        <path id="Path" fill="#9e7d5b" fill-rule="evenodd" stroke="none" d="M 0 51.199997 C 0 29.992325 17.19232 12.800003 38.399998 12.800003 L 217.600006 12.800003 C 238.808319 12.800003 256 29.992325 256 51.199997 L 256 166.399994 C 256 187.608322 238.808319 204.799988 217.600006 204.799988 L 140.800003 204.799988 L 140.800003 217.600006 L 166.399994 217.600006 C 173.469437 217.600006 179.199997 223.330566 179.199997 230.399994 C 179.199997 237.469437 173.469437 243.199997 166.399994 243.199997 L 89.599998 243.199997 C 82.530807 243.199997 76.800003 237.469437 76.800003 230.399994 C 76.800003 223.330566 82.530807 217.600006 89.599998 217.600006 L 115.199997 217.600006 L 115.199997 204.799988 L 38.399998 204.799988 C 17.19232 204.799988 0 187.608322 0 166.399994 L 0 51.199997 Z M 38.399998 38.399994 C 31.330816 38.399994 25.6 44.130814 25.6 51.199997 L 25.6 166.399994 C 25.6 173.469452 31.330816 179.199997 38.399998 179.199997 L 217.600006 179.199997 C 224.669434 179.199997 230.399994 173.469452 230.399994 166.399994 L 230.399994 51.199997 C 230.399994 44.130814 224.669434 38.399994 217.600006 38.399994 L 38.399998 38.399994 Z"/>
    </g>
</svg>
