<?xml version="1.0" encoding="UTF-8"?>
<!-- Generated by Pixelmator Pro 3.3.13 -->
<svg width="256" height="256" viewBox="0 0 256 256" xmlns="http://www.w3.org/2000/svg">
    <g id="SVGRepobgCarrier"/>
    <g id="SVGRepotracerCarrier"/>
    <g id="SVGRepoiconCarrier">
        <path id="Path" fill="#f9f9f9" stroke="none" d="M 127.573334 0 C 72.106667 0 24.746668 35.840012 7.253334 85.333328 L 248.746658 85.333328 C 230.82666 35.840012 183.46666 0 127.573334 0 Z"/>
        <path id="path1" fill="#ed4c5c" stroke="none" d="M 127.573334 256 C 183.46666 256 230.82666 220.159988 248.320007 170.666656 L 7.253334 170.666656 C 24.746668 220.58667 72.106667 256 127.573334 256 Z"/>
        <path id="path2" fill="#428bc1" stroke="none" d="M 7.253334 85.333328 C 2.56 98.559998 0 113.066666 0 128 C 0 142.933334 2.56 157.440002 7.253334 170.666656 L 248.746658 170.666656 C 253.440002 157.440002 256 142.933334 256 128 C 256 113.066666 253.440002 98.559998 248.746658 85.333328 L 7.253334 85.333328"/>
    </g>
</svg>
