<?xml version="1.0" encoding="UTF-8"?>
<!-- Generated by Pixelmator Pro 3.3.13 -->
<svg width="256" height="256" viewBox="0 0 256 256" xmlns="http://www.w3.org/2000/svg">
    <g id="SVGRepobgCarrier"/>
    <g id="SVGRepotracerCarrier"/>
    <g id="SVGRepoiconCarrier">
        <path id="Path" fill="#ff8c00" stroke="none" d="M 187.534882 128 C 187.534882 160.879913 160.879929 187.534882 128 187.534882 C 95.119835 187.534882 68.465118 160.879913 68.465118 128 C 68.465118 95.119827 95.119835 68.465118 128 68.465118 C 160.879929 68.465118 187.534882 95.119827 187.534882 128 Z"/>
        <path id="path1" fill="#ff8c00" fill-rule="evenodd" stroke="none" d="M 128 0 C 132.93187 0 136.930237 3.99826 136.930237 8.930237 L 136.930237 32.744202 C 136.930237 37.676178 132.93187 41.674423 128 41.674423 C 123.068138 41.674423 119.069771 37.676178 119.069771 32.744202 L 119.069771 8.930237 C 119.069771 3.99826 123.068138 0 128 0 Z M 28.798813 29.363678 C 32.126812 25.723709 37.775486 25.470825 41.415443 28.798813 L 67.872864 52.988922 C 71.512825 56.31691 71.765732 61.965454 68.437737 65.605423 C 65.109741 69.245377 59.461063 69.498276 55.821098 66.170288 L 29.363682 41.980301 C 25.723715 38.652313 25.470812 33.003647 28.798813 29.363678 Z M 227.201782 29.363678 C 230.529785 33.003647 230.276154 38.652313 226.636185 41.980301 L 200.178894 66.170288 C 196.53894 69.498276 190.890259 69.245377 187.562271 65.605423 C 184.234253 61.965454 184.486694 56.31691 188.126648 52.988922 L 214.585144 28.798813 C 218.225098 25.470825 223.872589 25.723709 227.201782 29.363678 Z M 5e-06 128 C 5e-06 123.06813 3.99825 119.069763 8.930238 119.069763 L 32.74419 119.069763 C 37.676174 119.069763 41.674423 123.06813 41.674423 128 C 41.674423 132.931854 37.676174 136.930237 32.74419 136.930237 L 8.930238 136.930237 C 3.99825 136.930237 5e-06 132.931854 5e-06 128 Z M 214.325577 128 C 214.325577 123.06813 218.323944 119.069763 223.255798 119.069763 L 247.069763 119.069763 C 252.001617 119.069763 256 123.06813 256 128 C 256 132.931854 252.001617 136.930237 247.069763 136.930237 L 223.255798 136.930237 C 218.323944 136.930237 214.325577 132.931854 214.325577 128 Z M 187.838501 187.83493 C 191.326065 184.347382 196.980698 184.347382 200.468246 187.83493 L 226.925537 214.295807 C 230.413101 217.783356 230.411911 223.437988 226.924347 226.925552 C 223.436798 230.413101 217.782181 230.411896 214.295792 226.924347 L 187.838501 200.46347 C 184.350952 196.975922 184.350952 191.322495 187.838501 187.83493 Z M 68.163513 187.836121 C 71.650948 191.323669 71.650948 196.978302 68.163513 200.465866 L 41.703472 226.925552 C 38.216038 230.413101 32.561775 230.413101 29.074221 226.925552 C 25.586786 223.437988 25.586786 217.783356 29.074221 214.297012 L 55.534264 187.836121 C 59.021694 184.348587 64.675957 184.348587 68.163513 187.836121 Z M 128 214.325577 C 132.93187 214.325577 136.930237 218.323944 136.930237 223.255814 L 136.930237 247.069763 C 136.930237 252.001633 132.93187 256 128 256 C 123.068138 256 119.069771 252.001633 119.069771 247.069763 L 119.069771 223.255814 C 119.069771 218.323944 123.068138 214.325577 128 214.325577 Z"/>
    </g>
</svg>
