<?xml version="1.0" encoding="UTF-8"?>
<!-- Generated by Pixelmator Pro 3.3.13 -->
<svg width="256" height="256" viewBox="0 0 256 256" xmlns="http://www.w3.org/2000/svg">
    <g id="SVGRepobgCarrier"/>
    <g id="SVGRepotracerCarrier"/>
    <g id="SVGRepoiconCarrier">
        <path id="Path" fill="#ed4c5c" stroke="none" d="M 196.266663 19.626663 C 176.213333 7.253342 153.17334 0 128 0 L 128 19.626663 L 196.266663 19.626663 Z"/>
        <path id="path1" fill="#ffffff" stroke="none" d="M 128 39.253342 L 220.159988 39.253342 C 212.906677 32 204.800003 25.17334 196.266663 19.626663 L 128 19.626663 L 128 39.253342 Z"/>
        <path id="path2" fill="#ed4c5c" stroke="none" d="M 128 58.87999 L 235.946671 58.87999 C 231.253342 51.626663 226.133331 45.226654 220.58667 39.253342 L 128 39.253342 L 128 58.87999 Z"/>
        <path id="path3" fill="#ffffff" stroke="none" d="M 128 78.506668 L 246.186676 78.506668 C 243.199997 71.679993 239.786667 64.853333 235.946671 58.87999 L 128 58.87999 L 128 78.506668"/>
        <path id="path4" fill="#ed4c5c" stroke="none" d="M 128 98.133331 L 252.58667 98.133331 C 250.87999 91.306671 248.746658 84.906677 246.186676 78.506668 L 128 78.506668 L 128 98.133331 Z"/>
        <path id="path5" fill="#ffffff" stroke="none" d="M 128 118.186676 L 255.573334 118.186676 C 255.146667 111.360001 253.866669 104.959991 252.58667 98.559998 L 128 98.559998 L 128 118.186676"/>
        <path id="path6" fill="#ed4c5c" stroke="none" d="M 255.573334 118.186676 L 128 118.186676 L 128 128 L 0 128 C 0 131.41333 0 134.399994 0.426666 137.813324 L 255.573334 137.813324 C 256 134.399994 256 131.41333 256 128 C 256 124.58667 256 121.17334 255.573334 118.186676"/>
        <path id="path7" fill="#ffffff" stroke="none" d="M 3.413333 157.440002 L 252.58667 157.440002 C 254.29332 151.040009 255.146667 144.640015 255.573334 137.813324 L 0.426666 137.813324 C 0.853334 144.213333 2.133333 151.040009 3.413333 157.440002"/>
        <path id="path8" fill="#ed4c5c" stroke="none" d="M 9.813334 177.066666 L 246.186676 177.066666 C 248.746658 170.666656 250.87999 164.266663 252.58667 157.440002 L 3.413333 157.440002 C 5.12 164.266663 7.253334 170.666656 9.813334 177.066666"/>
        <path id="path9" fill="#ffffff" stroke="none" d="M 20.053333 196.693329 L 235.946671 196.693329 C 239.786667 190.293335 243.199997 183.893326 246.186676 177.066666 L 9.813334 177.066666 C 12.8 183.893326 16.213335 190.293335 20.053333 196.693329"/>
        <path id="path10" fill="#ed4c5c" stroke="none" d="M 35.413334 216.320007 L 220.58667 216.320007 C 226.133331 210.346664 231.679993 203.520004 235.946671 196.693329 L 20.053333 196.693329 C 24.32 203.946655 29.866667 210.346664 35.413334 216.320007"/>
        <path id="path11" fill="#ffffff" stroke="none" d="M 59.306664 235.946655 L 196.693329 235.946655 C 205.653336 230.399994 213.333328 223.573334 220.58667 216.320007 L 35.413334 216.320007 C 42.666668 224 50.773331 230.399994 59.306664 235.946655"/>
        <path id="path12" fill="#ed4c5c" stroke="none" d="M 128 256 C 153.17334 256 176.639999 248.746658 196.693329 235.946655 L 59.306664 235.946655 C 79.360001 248.746658 102.826668 256 128 256"/>
        <path id="path13" fill="#428bc1" stroke="none" d="M 59.733334 19.626663 C 50.773331 25.17334 42.666668 32 35.413334 39.253342 C 29.439999 45.226654 24.32 52.053329 20.053333 58.87999 C 16.213335 65.279999 12.373334 71.679993 9.813334 78.506668 C 7.253334 84.906677 5.12 91.306671 3.413333 98.133331 C 1.706667 104.53334 0.853334 110.933334 0.426666 117.759995 C 0 121.17334 0 124.58667 0 128 L 128 128 L 128 0 C 102.826668 0 79.786667 7.253342 59.733334 19.626663"/>
        <g id="Group">
            <path id="path14" fill="#ffffff" stroke="none" d="M 98.133331 4.266663 L 100.26667 10.666672 L 106.666664 10.666672 L 101.546661 14.933334 L 103.253334 21.333328 L 98.133331 17.493332 L 93.013329 21.333328 L 94.720001 14.933334 L 89.599998 10.666672 L 96 10.666672 Z"/>
            <path id="path15" fill="#ffffff" stroke="none" d="M 115.199997 29.866669 L 117.333336 36.266663 L 123.73333 36.266663 L 118.613327 40.53334 L 120.32 46.933334 L 115.199997 43.093323 L 110.079994 46.933334 L 111.786667 40.53334 L 106.666664 36.266663 L 113.066666 36.266663 Z"/>
            <path id="path16" fill="#ffffff" stroke="none" d="M 81.066666 29.866669 L 83.199997 36.266663 L 89.599998 36.266663 L 84.479996 40.53334 L 86.186668 46.933334 L 81.066666 43.093323 L 75.946663 46.933334 L 77.653336 40.53334 L 72.533333 36.266663 L 78.933334 36.266663 Z"/>
            <path id="path17" fill="#ffffff" stroke="none" d="M 98.133331 55.46666 L 100.26667 61.866669 L 106.666664 61.866669 L 101.546661 66.133331 L 103.253334 72.53334 L 98.133331 68.693329 L 93.013329 72.53334 L 94.720001 66.133331 L 89.599998 61.866669 L 96 61.866669 Z"/>
            <path id="path18" fill="#ffffff" stroke="none" d="M 64 55.46666 L 66.133331 61.866669 L 72.533333 61.866669 L 67.41333 66.133331 L 69.120003 72.53334 L 64 68.693329 L 58.880001 72.53334 L 60.58667 66.133331 L 55.466667 61.866669 L 61.866665 61.866669 Z"/>
            <path id="path19" fill="#ffffff" stroke="none" d="M 29.866667 55.46666 L 32 61.866669 L 38.400002 61.866669 L 33.280003 66.133331 L 34.986668 72.53334 L 29.866667 68.693329 L 24.746668 72.53334 L 26.453333 66.133331 L 21.333334 61.866669 L 27.733334 61.866669 Z"/>
            <path id="path20" fill="#ffffff" stroke="none" d="M 115.199997 81.066666 L 117.333336 87.46666 L 123.73333 87.46666 L 118.613327 91.733337 L 120.32 98.133331 L 115.199997 94.29332 L 110.079994 98.133331 L 111.786667 91.733337 L 106.666664 87.46666 L 113.066666 87.46666 Z"/>
            <path id="path21" fill="#ffffff" stroke="none" d="M 81.066666 81.066666 L 83.199997 87.46666 L 89.599998 87.46666 L 84.479996 91.733337 L 86.186668 98.133331 L 81.066666 94.29332 L 75.946663 98.133331 L 77.653336 91.733337 L 72.533333 87.46666 L 78.933334 87.46666 Z"/>
            <path id="path22" fill="#ffffff" stroke="none" d="M 46.933334 81.066666 L 49.066666 87.46666 L 55.466667 87.46666 L 50.346668 91.733337 L 52.053333 98.133331 L 46.933334 94.29332 L 41.813335 98.133331 L 43.52 91.733337 L 38.400002 87.46666 L 44.799999 87.46666 Z"/>
            <path id="path23" fill="#ffffff" stroke="none" d="M 98.133331 106.666672 L 100.26667 113.066666 L 106.666664 113.066666 L 101.546661 117.333328 L 103.253334 123.733337 L 98.133331 119.893326 L 93.013329 123.733337 L 94.720001 117.333328 L 89.599998 113.066666 L 96 113.066666 Z"/>
            <path id="path24" fill="#ffffff" stroke="none" d="M 64 106.666672 L 66.133331 113.066666 L 72.533333 113.066666 L 67.41333 117.333328 L 69.120003 123.733337 L 64 119.893326 L 58.880001 123.733337 L 60.58667 117.333328 L 55.466667 113.066666 L 61.866665 113.066666 Z"/>
            <path id="path25" fill="#ffffff" stroke="none" d="M 29.866667 106.666672 L 32 113.066666 L 38.400002 113.066666 L 33.280003 117.333328 L 34.986668 123.733337 L 29.866667 119.893326 L 24.746668 123.733337 L 26.453333 117.333328 L 21.333334 113.066666 L 27.733334 113.066666 Z"/>
            <path id="path26" fill="#ffffff" stroke="none" d="M 41.813335 46.933334 L 46.933334 43.093323 L 52.053333 46.933334 L 49.919998 40.53334 L 55.039997 36.266663 L 48.639999 36.266663 L 46.933334 29.866669 L 44.799999 36.266663 L 38.826668 36.266663 L 43.946667 40.106674 L 41.813335 46.933334"/>
            <path id="path27" fill="#ffffff" stroke="none" d="M 7.68 98.133331 L 12.8 94.29332 L 17.92 98.133331 L 15.786666 91.733337 L 20.906668 87.46666 L 14.933333 87.46666 L 12.8 81.066666 L 10.666667 87.46666 L 6.4 87.46666 C 6.4 87.893326 5.973334 88.320007 5.973334 88.746658 L 9.386666 91.306671 L 7.68 98.133331"/>
        </g>
    </g>
</svg>
