<?xml version="1.0" encoding="UTF-8"?>
<!-- Generated by Pixelmator Pro 3.4.1 -->
<svg width="381" height="381" viewBox="0 0 381 381" xmlns="http://www.w3.org/2000/svg">
    <g id="Regular-S--copy">
        <path id="path1" fill="#ffcc00" stroke="none" d="M 74.170616 367.454559 C 82.093315 373.450531 91.730217 371.094971 103.29332 362.743469 L 190.448914 298.715149 L 277.818634 362.743469 C 289.168152 371.094971 298.805054 373.450531 306.727753 367.454559 C 314.436829 361.67276 315.935822 351.822235 311.224731 338.545471 L 276.748474 235.97168 L 364.760101 172.799942 C 376.32428 164.876709 381.248993 156.096909 378.037415 146.674683 C 375.039429 137.68074 366.044952 133.183762 351.91214 133.397903 L 243.984818 134.254471 L 211.221176 31.038269 C 206.937805 17.547363 200.299423 10.480682 190.448914 10.480682 C 180.81308 10.480682 174.174164 17.547363 169.677185 31.038269 L 136.913544 134.254471 L 28.986221 133.397903 C 14.853417 133.183762 6.073081 137.68074 2.860958 146.674683 C -0.136488 156.096909 4.788767 164.876709 16.138266 172.799942 L 104.149887 235.97168 L 69.673645 338.545471 C 64.962532 351.822235 66.461517 361.67276 74.170616 367.454559 Z"/>
    </g>
</svg>
