<?xml version="1.0" encoding="UTF-8"?>
<!-- Generated by Pixelmator Pro 3.4.3 -->
<svg width="381" height="381" viewBox="0 0 381 381" xmlns="http://www.w3.org/2000/svg">
    <g id="Regular-S--copy">
        <path id="-copy" fill="#646464" stroke="none" d="M 74.203041 367.651703 C 82.129303 373.65036 91.770531 371.293762 103.338837 362.938477 L 190.533585 298.881409 L 277.942566 362.938477 C 289.29718 371.293762 298.938416 373.65036 306.864655 367.651703 C 314.577209 361.867279 316.076874 352.01236 311.363647 338.729614 L 276.871918 236.109756 L 364.923096 172.909622 C 376.492462 164.982834 381.419373 156.199081 378.20636 146.772629 C 375.207031 137.774643 366.208496 133.27565 352.069366 133.489883 L 244.093552 134.346832 L 211.31517 31.084259 C 207.029892 17.58728 200.388519 10.517426 190.533585 10.517426 C 180.893417 10.517426 174.251511 17.58728 169.752518 31.084259 L 136.974152 134.346832 L 28.998346 133.489883 C 14.859192 133.27565 6.074911 137.774643 2.861345 146.772629 C -0.137448 156.199081 4.79002 164.982834 16.144619 172.909622 L 104.195786 236.109756 L 69.704048 338.729614 C 64.990814 352.01236 66.490479 361.867279 74.203041 367.651703 Z"/>
    </g>
</svg>
