<?xml version="1.0" encoding="UTF-8"?>
<!-- Generated by Pixelmator Pro 3.4.3 -->
<svg width="381" height="381" viewBox="0 0 381 381" xmlns="http://www.w3.org/2000/svg">
    <g id="Regular-S--6-copy">
        <path id="-copy" fill="#646464" stroke="none" d="M 74.553482 369.853302 C 82.518211 375.881073 92.206238 373.513031 103.830688 365.117218 L 191.448639 300.749237 L 279.28186 365.117218 C 290.691589 373.513031 300.379608 375.881073 308.34433 369.853302 C 316.09433 364.040833 317.601288 354.138062 312.865173 340.790833 L 278.206024 237.672913 L 366.68454 174.166046 C 378.310089 166.200775 383.260925 157.37439 380.032288 147.902176 C 377.018402 138.860519 367.976227 134.339691 353.768433 134.554977 L 245.268555 135.416092 L 212.3311 31.652313 C 208.025009 18.089844 201.35141 10.985687 191.448639 10.985687 C 181.761688 10.985687 175.087555 18.089844 170.566727 31.652313 L 137.629257 135.416092 L 29.129383 134.554977 C 14.921605 134.339691 6.094688 138.860519 2.865525 147.902176 C -0.147822 157.37439 4.803561 166.200775 16.21327 174.166046 L 104.691795 237.672913 L 70.032654 340.790833 C 65.296547 354.138062 66.80349 364.040833 74.553482 369.853302 Z M 191.448639 267.381226 L 191.448639 58.562012 C 191.879196 58.562012 192.094467 58.777283 192.310287 59.638397 L 220.081085 154.145233 C 222.449142 161.679947 227.399994 164.693832 234.934708 164.478546 L 333.317078 162.325775 C 334.178192 162.325775 334.392914 162.325775 334.608734 162.756332 C 334.824005 163.18689 334.608734 163.402161 333.962891 164.048004 L 252.587463 219.5896 C 246.129669 224.110428 244.837463 229.707642 247.421341 236.811798 L 280.142975 329.811707 C 280.358795 330.672791 280.358795 330.888092 280.142975 331.318634 C 279.927704 331.749207 279.497681 331.318634 278.851868 330.888092 L 200.706116 270.825653 C 197.69223 268.457581 194.678345 267.165924 191.448639 267.381226 Z"/>
    </g>
</svg>
