<?xml version="1.0" encoding="UTF-8"?>
<!-- Generated by Pixelmator Pro 3.4.2 -->
<svg width="381" height="381" viewBox="0 0 381 381" xmlns="http://www.w3.org/2000/svg">
    <g id="-copy">
        <g id="Regular-S--copy">
            <path id="path1" fill="#000000" stroke="none" d="M 96.544312 381 L 283.880615 381 C 321.844452 381 340.82724 361.791809 340.82724 323.375458 L 340.82724 166.546265 L 211.567444 166.546265 C 187.613144 166.546265 176.314209 155.24733 176.314209 131.293594 L 176.314209 0 L 96.544312 0 C 58.579899 0 39.823109 19.208191 39.823109 57.624542 L 39.823109 323.375458 C 39.823109 362.017792 58.579899 381 96.544312 381 Z M 211.567444 140.106766 L 338.792847 140.106766 C 337.663544 131.745544 332.014069 123.836304 322.5224 114.119232 L 228.741257 18.30426 C 219.4767 8.813171 211.114929 2.937714 202.753708 1.581848 L 202.753708 131.293594 C 202.753708 137.169037 205.917984 140.106766 211.567444 140.106766 Z"/>
            <path id="path2" fill="#ffffff" stroke="none" d="M 190.325455 200.217087 C 198.234146 200.217087 205.014069 206.770462 205.014069 214.679718 L 205.014069 270.270447 L 203.657623 295.806061 L 213.601257 285.637024 L 229.419189 269.592529 C 232.357483 266.880798 235.97258 265.29895 239.588791 265.29895 C 247.498047 265.29895 253.372925 270.722412 253.372925 278.405701 C 253.372925 282.247314 251.791077 285.862976 248.853363 288.348755 L 201.17186 331.510681 C 197.104813 335.126343 193.940552 336.482208 190.325455 336.482208 C 186.48381 336.482208 183.545532 335.126343 179.477905 331.510681 L 131.570435 288.348755 C 128.633286 285.862976 127.05143 282.247314 127.05143 278.405701 C 127.05143 270.722412 132.926315 265.29895 140.836121 265.29895 C 144.451218 265.29895 148.292862 266.880798 151.005173 269.592529 L 166.823105 285.637024 L 176.766739 295.806061 L 175.410858 270.270447 L 175.410858 214.679718 C 175.410858 206.770462 182.189651 200.217087 190.325455 200.217087 Z"/>
        </g>
    </g>
</svg>
