<?xml version="1.0" encoding="UTF-8"?>
<!-- Generated by Pixelmator Pro 3.4.2 -->
<svg width="381" height="381" viewBox="0 0 381 381" xmlns="http://www.w3.org/2000/svg">
    <g id="-copy">
        <path id="path1" fill="#ffffff" stroke="none" d="M 19.610619 125.809128 C 30.998152 125.809128 37.055347 119.509644 37.055347 108.122101 L 37.055347 64.752563 C 37.055347 46.580963 46.989155 37.131744 64.434486 37.131744 L 109.014862 37.131744 C 120.403 37.131744 126.701881 30.832275 126.701881 19.687012 C 126.701881 8.2995 120.403 2 109.014862 2 L 63.949306 2 C 22.760363 2 2.165889 22.352173 2.165889 63.056549 L 2.165889 108.122101 C 2.165889 119.509644 8.465375 125.809128 19.610619 125.809128 Z M 361.478882 125.809128 C 372.866394 125.809128 378.923615 119.509644 378.923615 108.122101 L 378.923615 63.056549 C 378.923615 22.352173 358.571411 2 317.140167 2 L 272.074615 2 C 260.687103 2 254.387619 8.2995 254.387619 19.687012 C 254.387619 30.832275 260.687103 37.131744 272.074615 37.131744 L 316.655609 37.131744 C 334.100342 37.131744 344.034149 46.580963 344.034149 64.752563 L 344.034149 108.122101 C 344.034149 119.509644 350.333618 125.809128 361.478882 125.809128 Z M 63.949306 379 L 109.014862 379 C 120.403 379 126.701881 372.7005 126.701881 361.555267 C 126.701881 350.167725 120.403 343.868256 109.014862 343.868256 L 64.434486 343.868256 C 46.989155 343.868256 37.055347 334.419006 37.055347 316.247437 L 37.055347 273.120178 C 37.055347 261.490356 30.755863 255.190872 19.610619 255.190872 C 8.223087 255.190872 2.165889 261.490356 2.165889 273.120178 L 2.165889 317.943451 C 2.165889 358.647827 22.760363 379 63.949306 379 Z M 272.074615 379 L 317.140167 379 C 358.571411 379 378.923615 358.647827 378.923615 317.943451 L 378.923615 273.120178 C 378.923615 261.490356 372.624115 255.190872 361.478882 255.190872 C 350.091339 255.190872 344.034149 261.490356 344.034149 273.120178 L 344.034149 316.247437 C 344.034149 334.419006 334.100342 343.868256 316.655609 343.868256 L 272.074615 343.868256 C 260.687103 343.868256 254.387619 350.167725 254.387619 361.555267 C 254.387619 372.7005 260.687103 379 272.074615 379 Z"/>
        <path id="path2" fill="#ffffff" stroke="none" d="M 134.230896 305 L 271.35907 305 C 276.659393 305 281.144257 300.651031 281.144257 295.214844 C 281.144257 290.865875 278.154327 287.196442 274.213074 285.837402 C 261.302124 281.488434 258.855804 264.500305 271.766449 251.86113 C 275.843964 248.055786 281.144257 243.027298 281.144257 232.154892 L 281.144257 110.655792 C 281.144257 87.551941 269.727875 76 246.896179 76 L 134.230896 76 C 111.398842 76 100.118385 87.416016 100.118385 110.655792 L 100.118385 270.344208 C 100.118385 293.583984 111.398842 305 134.230896 305 Z M 119.689049 238.95015 L 119.689049 110.927582 C 119.689049 101.142426 124.989349 95.570313 135.18222 95.570313 L 245.944504 95.570313 C 256.13739 95.570313 261.437683 101.142426 261.437683 110.927582 L 261.437683 229.300888 C 261.437683 233.242142 258.99173 235.552521 254.914566 235.552521 L 136.405029 235.552521 C 130.017502 235.552521 124.445732 236.775665 119.689049 238.95015 Z M 135.18222 285.429688 C 124.989349 285.429688 119.689049 279.857574 119.689049 270.208313 C 119.689049 261.238586 126.348396 255.122849 136.405029 255.122849 L 244.177734 255.122849 C 244.993164 255.122849 245.672684 255.122849 246.352554 255.122849 C 242.13916 265.45163 242.411301 276.324036 246.760269 285.429688 Z M 132.056076 246.153122 L 147.821396 246.153122 L 147.821396 91.085449 L 132.056076 91.085449 Z M 166.168579 146.534714 L 242.954926 146.534714 C 247.303894 146.534714 250.837082 143.00119 250.837082 138.652222 C 250.837082 134.439163 247.303894 130.90564 242.954926 130.90564 L 166.168579 130.90564 C 161.819611 130.90564 158.286087 134.439163 158.286087 138.652222 C 158.286087 143.00119 161.819611 146.534714 166.168579 146.534714 Z M 166.168579 176.297928 L 225.966797 176.297928 C 230.315765 176.297928 233.849289 172.764389 233.849289 168.415436 C 233.849289 164.202377 230.315765 160.668839 225.966797 160.668839 L 166.168579 160.668839 C 161.819611 160.668839 158.286087 164.202377 158.286087 168.415436 C 158.286087 172.764389 161.819611 176.297928 166.168579 176.297928 Z"/>
    </g>
</svg>
