<?xml version="1.0" encoding="UTF-8"?>
<!-- Generated by Pixelmator Pro 3.4.3 -->
<svg width="381" height="381" viewBox="0 0 381 381" xmlns="http://www.w3.org/2000/svg">
    <g id="-copy">
        <g id="--copy">
            <path id="path1" fill="#000000" stroke="none" d="M 95.93206 316 L 281.564056 316 C 297.018158 316 306.255768 308.89447 306.255768 296.992706 C 306.255768 260.932129 261.135651 211.19342 188.659241 211.19342 C 116.360023 211.19342 71.240341 260.932129 71.240341 296.992706 C 71.240341 308.89447 80.477531 316 95.93206 316 Z M 188.836884 186.324066 C 218.502472 186.324066 244.792938 159.500687 244.792938 124.505951 C 244.792938 89.688843 218.502472 64.464203 188.836884 64.464203 C 158.993652 64.464203 132.702744 90.399384 132.702744 124.861206 C 132.702744 159.500687 158.993652 186.324066 188.836884 186.324066 Z"/>
            <path id="path2" fill="#000000" stroke="none" d="M 4.62599 132.499664 L 43.17305 161.099426 C 51.700134 167.4944 61.825516 163.763992 61.825516 153.28334 L 61.825516 136.940613 L 97.352722 136.940613 C 104.458702 136.940613 109.787849 131.433838 109.787849 124.505951 C 109.787849 117.578033 104.458702 112.248901 97.352722 112.248901 L 61.825516 112.248901 L 61.825516 96.261444 C 61.825516 85.247894 51.344414 82.050385 43.17305 88.090088 L 4.62599 117.045135 C -0.880796 120.953186 -0.880796 128.413986 4.62599 132.499664 Z M 267.708282 124.505951 C 267.708282 131.433838 273.036987 136.940613 280.142944 136.940613 L 315.670593 136.940613 L 315.670593 153.28334 C 315.670593 163.763992 325.79599 167.4944 334.322174 161.099426 L 372.869232 132.499664 C 378.376923 128.413986 378.376923 120.953186 372.869232 117.045135 L 334.322174 88.090088 C 326.151276 82.050385 315.670593 85.247894 315.670593 96.261444 L 315.670593 112.248901 L 280.142944 112.248901 C 273.036987 112.248901 267.708282 117.578033 267.708282 124.505951 Z"/>
        </g>
    </g>
</svg>
