<?xml version="1.0" encoding="UTF-8"?>
<!-- Generated by Pixelmator Pro 3.4.3 -->
<svg width="381" height="381" viewBox="0 0 381 381" xmlns="http://www.w3.org/2000/svg">
    <g id="-copy">
        <path id="path1" fill="#000000" stroke="none" d="M 20.543098 276.372925 L 93.274551 276.372925 C 97.287323 276.372925 98.959312 276.038513 101.968887 275.36972 L 175.536346 257.646667 C 176.873932 257.312256 178.044327 258.482666 177.877121 259.820251 L 173.028351 299.780731 L 144.102982 279.048096 C 137.916626 274.700928 129.389481 276.205719 125.04232 282.224854 C 120.527954 288.411224 121.86554 297.10556 128.051895 301.452728 L 172.693954 332.886108 C 182.391495 339.741241 194.597 337.567657 197.10498 327.36853 L 233.888702 179.899231 C 234.390305 178.227249 236.062286 177.22406 237.901474 177.558456 L 357.950592 201.46788 C 368.315674 203.474258 374 195.783112 374 188.09198 C 374 182.240021 370.825745 176.388062 363.299286 174.88327 L 244.756622 150.973846 C 209.812088 144.118698 187.741852 140.774734 162.829239 140.774734 L 129.389481 140.774734 L 129.389481 106.666199 C 129.389481 98.975037 123.203133 92.955902 115.846382 92.955902 C 108.155243 92.955902 102.136086 98.975037 102.136086 106.666199 L 102.136086 154.150635 C 102.136086 161.674576 108.155243 167.860931 115.846382 167.860931 L 172.025162 167.860931 C 174.533142 167.860931 176.37233 170.034515 175.703537 172.542496 L 164.668427 214.509384 C 162.829239 221.364532 158.314865 226.547684 151.626923 228.888474 L 92.940155 249.286713 L 20.543098 249.286713 C 12.851956 249.286713 7 255.473068 7 262.997009 C 7 270.688171 12.851956 276.372925 20.543098 276.372925 Z M 220.345596 133.417984 C 236.396683 133.417984 249.438187 120.376495 249.438187 104.158203 C 249.438187 88.107117 236.396683 75.232819 220.345596 75.232819 C 204.127319 75.232819 191.085815 88.107117 191.085815 104.158203 C 191.085815 120.376495 204.127319 133.417984 220.345596 133.417984 Z M 144.604568 94.96228 C 155.806885 94.96228 165.002823 85.933533 165.002823 74.564026 C 165.002823 63.194519 155.806885 53.998566 144.604568 53.998566 C 133.235062 53.998566 124.039124 63.194519 124.039124 74.564026 C 124.039124 85.933533 133.235062 94.96228 144.604568 94.96228 Z"/>
    </g>
</svg>
