<?xml version="1.0" encoding="UTF-8"?>
<!-- Generated by Pixelmator Pro 3.4.3 -->
<svg width="381" height="381" viewBox="0 0 381 381" xmlns="http://www.w3.org/2000/svg">
    <g id="-copy">
        <path id="path1" fill="#ffffff" stroke="none" d="M 64.215088 372 L 330.488861 372 C 338.941986 372 345.915283 365.026184 345.915283 356.784393 C 345.915283 348.331268 338.941986 341.568787 330.488861 341.568787 L 320.344604 341.568787 L 320.344604 306.91098 C 320.344604 287.680145 311.46936 277.536377 290.759216 277.536377 L 104.156601 277.536377 C 83.23513 277.536377 74.570686 287.680145 74.570686 306.91098 L 74.570686 341.568787 L 64.215088 341.568787 C 55.973824 341.568787 49 348.331268 49 356.784393 C 49 365.026184 55.973824 372 64.215088 372 Z M 98.239418 252.81102 L 296.676392 252.81102 C 306.608795 252.81102 311.891998 246.048523 311.891998 236.961426 C 311.891998 212.447372 274.698273 151.584915 197.352249 151.584915 C 119.794342 151.584915 83.023804 212.447372 83.023804 236.961426 C 83.023804 246.048523 88.09568 252.81102 98.239418 252.81102 Z M 197.352249 132.354065 C 228.840118 132.776718 253.988144 105.515411 253.988144 70.223633 C 253.988144 37.045135 228.840118 9.361176 197.352249 9.361176 C 166.075699 9.361176 140.50502 37.045135 140.50502 70.223633 C 140.50502 105.515411 165.86438 132.142746 197.352249 132.354065 Z M 166.286499 335.228943 C 160.369324 335.228943 156.14328 330.791046 156.14328 324.662537 C 156.14328 318.745361 160.369324 314.307465 166.286499 314.307465 L 228.628784 314.307465 C 234.545975 314.307465 238.983856 318.745361 238.983856 324.662537 C 238.983856 330.791046 234.545975 335.228943 228.628784 335.228943 Z"/>
    </g>
</svg>
