<?xml version="1.0" encoding="UTF-8"?>
<!-- Generated by Pixelmator Pro 3.4.3 -->
<svg width="381" height="381" viewBox="0 0 381 381" xmlns="http://www.w3.org/2000/svg">
    <g id="-copy">
        <path id="path1" fill="#ffffff" stroke="none" d="M 19.610619 125.809128 C 30.998152 125.809128 37.055347 119.509644 37.055347 108.122101 L 37.055347 64.752563 C 37.055347 46.580963 46.989155 37.131744 64.434486 37.131744 L 109.014862 37.131744 C 120.403 37.131744 126.701881 30.832275 126.701881 19.687012 C 126.701881 8.2995 120.403 2 109.014862 2 L 63.949306 2 C 22.760363 2 2.165889 22.352173 2.165889 63.056549 L 2.165889 108.122101 C 2.165889 119.509644 8.465375 125.809128 19.610619 125.809128 Z M 361.478882 125.809128 C 372.866394 125.809128 378.923615 119.509644 378.923615 108.122101 L 378.923615 63.056549 C 378.923615 22.352173 358.571411 2 317.140167 2 L 272.074615 2 C 260.687103 2 254.387619 8.2995 254.387619 19.687012 C 254.387619 30.832275 260.687103 37.131744 272.074615 37.131744 L 316.655609 37.131744 C 334.100342 37.131744 344.034149 46.580963 344.034149 64.752563 L 344.034149 108.122101 C 344.034149 119.509644 350.333618 125.809128 361.478882 125.809128 Z M 63.949306 379 L 109.014862 379 C 120.403 379 126.701881 372.7005 126.701881 361.555267 C 126.701881 350.167725 120.403 343.868256 109.014862 343.868256 L 64.434486 343.868256 C 46.989155 343.868256 37.055347 334.419006 37.055347 316.247437 L 37.055347 273.120178 C 37.055347 261.490356 30.755863 255.190872 19.610619 255.190872 C 8.223087 255.190872 2.165889 261.490356 2.165889 273.120178 L 2.165889 317.943451 C 2.165889 358.647827 22.760363 379 63.949306 379 Z M 272.074615 379 L 317.140167 379 C 358.571411 379 378.923615 358.647827 378.923615 317.943451 L 378.923615 273.120178 C 378.923615 261.490356 372.624115 255.190872 361.478882 255.190872 C 350.091339 255.190872 344.034149 261.490356 344.034149 273.120178 L 344.034149 316.247437 C 344.034149 334.419006 334.100342 343.868256 316.655609 343.868256 L 272.074615 343.868256 C 260.687103 343.868256 254.387619 350.167725 254.387619 361.555267 C 254.387619 372.7005 260.687103 379 272.074615 379 Z"/>
        <g id="g1">
            <path id="path2" fill="#ffffff" stroke="none" d="M 181.876785 272 L 293.190186 272 C 308.615326 272 313.681732 267.625702 313.681732 259.682922 C 313.681732 236.314972 284.441589 204.083328 237.476364 204.083328 C 190.625381 204.083328 161.386673 236.314972 161.386673 259.682922 C 161.386673 267.625702 166.451645 272 181.876785 272 Z M 237.476364 187.967514 C 256.815338 187.967514 273.852081 170.585449 273.852081 147.908188 C 273.852081 125.346039 256.815338 109 237.476364 109 C 218.252502 109 201.215775 125.806503 201.215775 148.138412 C 201.215775 170.585449 218.252502 187.967514 237.476364 187.967514 Z"/>
            <path id="path3" fill="#ffffff" stroke="none" d="M 84.145859 272 L 150.105606 272 C 140.896561 256.689972 153.444168 229.293076 172.66803 214.788849 C 162.652924 208.457626 149.990494 203.853104 133.64444 203.853104 C 92.89473 203.853104 67.339363 234.242935 67.339363 258.992249 C 67.339363 267.165253 71.828766 272 84.145859 272 Z M 133.64444 190.039551 C 150.450943 190.039551 165.300812 174.844635 165.300812 155.160309 C 165.300812 135.475983 150.450943 121.317078 133.64444 121.317078 C 116.953064 121.317078 101.988373 135.821335 101.988373 155.390533 C 101.988373 174.844635 116.953064 190.039551 133.64444 190.039551 Z"/>
        </g>
    </g>
</svg>
