<?xml version="1.0" encoding="UTF-8"?>
<!-- Generated by Pixelmator Pro 3.4.3 -->
<svg width="381" height="381" viewBox="0 0 381 381" xmlns="http://www.w3.org/2000/svg">
    <g id="-copy">
        <path id="path1" fill="#000000" stroke="none" d="M 19.610619 125.809128 C 30.998152 125.809128 37.055347 119.509644 37.055347 108.122101 L 37.055347 64.752563 C 37.055347 46.580963 46.989155 37.131744 64.434486 37.131744 L 109.014862 37.131744 C 120.403 37.131744 126.701881 30.832275 126.701881 19.687012 C 126.701881 8.2995 120.403 2 109.014862 2 L 63.949306 2 C 22.760363 2 2.165889 22.352173 2.165889 63.056549 L 2.165889 108.122101 C 2.165889 119.509644 8.465375 125.809128 19.610619 125.809128 Z M 361.478882 125.809128 C 372.866394 125.809128 378.923615 119.509644 378.923615 108.122101 L 378.923615 63.056549 C 378.923615 22.352173 358.571411 2 317.140167 2 L 272.074615 2 C 260.687103 2 254.387619 8.2995 254.387619 19.687012 C 254.387619 30.832275 260.687103 37.131744 272.074615 37.131744 L 316.655609 37.131744 C 334.100342 37.131744 344.034149 46.580963 344.034149 64.752563 L 344.034149 108.122101 C 344.034149 119.509644 350.333618 125.809128 361.478882 125.809128 Z M 63.949306 379 L 109.014862 379 C 120.403 379 126.701881 372.7005 126.701881 361.555267 C 126.701881 350.167725 120.403 343.868256 109.014862 343.868256 L 64.434486 343.868256 C 46.989155 343.868256 37.055347 334.419006 37.055347 316.247437 L 37.055347 273.120178 C 37.055347 261.490356 30.755863 255.190872 19.610619 255.190872 C 8.223087 255.190872 2.165889 261.490356 2.165889 273.120178 L 2.165889 317.943451 C 2.165889 358.647827 22.760363 379 63.949306 379 Z M 272.074615 379 L 317.140167 379 C 358.571411 379 378.923615 358.647827 378.923615 317.943451 L 378.923615 273.120178 C 378.923615 261.490356 372.624115 255.190872 361.478882 255.190872 C 350.091339 255.190872 344.034149 261.490356 344.034149 273.120178 L 344.034149 316.247437 C 344.034149 334.419006 334.100342 343.868256 316.655609 343.868256 L 272.074615 343.868256 C 260.687103 343.868256 254.387619 350.167725 254.387619 361.555267 C 254.387619 372.7005 260.687103 379 272.074615 379 Z"/>
        <path id="path2" fill="#000000" stroke="none" d="M 191.452118 290.823059 C 193.02948 290.823059 194.608063 290.70166 196.307434 290.580292 L 200.919373 299.319855 C 202.618729 303.32547 206.98912 305.510376 211.601059 304.782074 C 215.850067 304.053772 219.127396 300.533691 219.734314 296.163879 L 221.068909 286.21051 C 224.224869 285.36084 227.26004 284.147003 230.172623 283.054565 L 237.576981 289.609222 C 240.854919 292.5224 245.467468 293.250702 249.593872 290.944427 C 253.357346 288.638153 255.17749 284.389771 254.207031 280.141357 L 252.022141 270.309357 C 254.571182 268.367218 257.120209 266.303711 259.66925 263.997437 L 268.894348 268.003082 C 272.899384 269.702454 277.391144 268.488617 280.42572 264.968506 C 282.974762 261.812561 283.581665 257.200012 281.153412 253.315765 L 275.813171 244.697571 C 277.512543 242.027161 279.090515 239.235352 280.547089 236.322159 L 290.621277 236.807693 C 294.991058 237.050461 299.118683 234.380035 300.453888 230.131638 C 301.909882 226.126007 300.453888 221.392075 297.176544 218.843033 L 289.165283 212.652512 C 289.893585 209.496567 290.621277 206.219223 290.985413 203.063278 L 300.453888 199.907318 C 304.823059 198.450729 307.493469 194.809235 307.493469 190.439453 C 307.493469 186.069672 304.823059 182.428192 300.453888 180.971603 L 290.985413 177.815643 C 290.621277 174.659698 289.893585 171.503738 289.165283 168.22641 L 297.054565 162.035873 C 300.453888 159.365463 301.909882 154.874298 300.453888 150.990036 C 299.118683 146.620255 294.991058 144.071228 290.621277 144.192612 L 280.547089 144.556747 C 279.090515 141.64357 277.512543 138.851761 275.813171 136.059952 L 281.153412 127.563156 C 283.460297 123.921661 282.974762 119.187744 280.42572 116.031799 C 277.391144 112.511688 273.021362 111.297852 268.77298 112.997223 L 259.426483 116.760101 C 257.120209 114.696594 254.571182 112.633087 252.022141 110.56955 L 254.207031 100.737549 C 255.17749 96.367767 253.235962 92.119385 249.351715 89.934479 C 245.345474 87.749603 240.611542 88.235138 237.576981 91.269684 L 230.172623 97.94574 C 227.26004 96.731934 224.103485 95.639465 221.068909 94.668427 L 219.734314 84.836395 C 219.127396 80.466614 215.850067 76.946533 211.358902 76.096832 C 206.98912 75.489929 202.862106 77.796204 201.041351 81.316315 L 196.307434 90.298645 C 194.608063 90.177246 193.02948 90.177246 191.452118 90.177246 C 189.752762 90.177246 188.174774 90.177246 186.475418 90.298645 L 181.862259 81.437683 C 179.920746 77.674835 175.793121 75.489929 171.181183 76.218231 C 166.932785 76.946533 163.655457 80.466614 163.048538 84.836395 L 161.713318 94.668427 C 158.678757 95.639465 155.522186 96.731934 152.609619 97.94574 L 145.326645 91.391083 C 142.17009 88.235138 137.436157 87.749603 133.309738 89.934479 C 129.546875 92.119385 127.604752 96.367767 128.575821 100.858948 L 130.760712 110.56955 C 128.21167 112.633087 125.662628 114.696594 123.234367 116.760101 L 113.888496 112.997223 C 109.760872 111.297852 105.391693 112.511688 102.357124 116.031799 C 99.80748 119.187744 99.322556 123.921661 101.62822 127.563156 L 106.969673 136.059952 C 105.270317 138.851761 103.691727 141.64357 102.235741 144.556747 L 92.160362 144.192612 C 87.790581 144.071228 83.664169 146.620255 82.328964 150.868652 C 80.872368 154.874298 82.328964 159.486847 85.60569 162.035873 L 93.617561 168.347778 C 92.888657 171.503738 92.160362 174.659698 91.796822 177.815643 L 82.328964 180.971603 C 77.959183 182.428192 75.288757 186.069672 75.288757 190.439453 C 75.288757 194.809235 77.959183 198.450729 82.328964 199.907318 L 91.796822 203.063278 C 92.160362 206.219223 92.888657 209.496567 93.617561 212.652512 L 85.727684 218.843033 C 82.328964 221.513458 80.872368 226.126007 82.328964 230.010254 C 83.664169 234.380035 87.790581 237.050461 92.282356 236.807693 L 102.235741 236.322159 C 103.691727 239.235352 105.270317 242.027161 106.969673 244.697571 L 101.507446 253.437134 C 99.201172 257.078613 99.80748 261.812561 102.357124 264.968506 C 105.391693 268.488617 109.760872 269.702454 114.00988 267.881714 L 123.112984 263.997437 C 125.662628 266.303711 128.21167 268.367218 130.760712 270.309357 L 128.575821 280.262756 C 127.726135 284.389771 129.425491 288.638153 133.431122 291.065796 C 137.315384 293.250702 142.049301 292.643799 145.204651 289.730591 L 152.609619 283.054565 C 155.522186 284.147003 158.556763 285.36084 161.713318 286.21051 L 163.048538 296.163879 C 163.655457 300.533691 166.932785 304.053772 171.42395 304.903442 C 175.793121 305.510376 179.920746 303.204102 181.862259 299.441223 L 186.475418 290.580292 C 188.174774 290.70166 189.752762 290.823059 191.452118 290.823059 Z M 191.452118 259.627655 C 153.216522 259.627655 122.263298 228.675049 122.263298 190.439453 C 122.263298 152.203873 153.216522 121.251251 191.452118 121.251251 C 229.687088 121.251251 260.64032 152.203873 260.64032 190.439453 C 260.64032 228.675049 229.687088 259.627655 191.452118 259.627655 Z M 191.452118 224.912186 C 210.509216 224.912186 225.924225 209.496567 225.924225 190.439453 C 225.924225 171.382355 210.509216 155.966736 191.452118 155.966736 C 172.394409 155.966736 156.979401 171.382355 156.979401 190.439453 C 156.979401 209.496567 172.394409 224.912186 191.452118 224.912186 Z M 187.445877 222.727295 L 165.233429 208.161346 L 136.100937 256.593079 L 159.891968 268.24585 Z M 165.233429 171.746506 L 187.931412 157.908859 L 161.470566 112.026154 L 137.315384 123.19339 Z M 220.583984 203.791565 L 274.234589 203.791565 L 274.1138 176.480438 L 220.704773 176.480438 Z M 191.452118 201.849442 C 185.018829 201.849442 180.04213 196.872742 180.04213 190.439453 C 180.04213 184.006165 185.018829 179.02948 191.452118 179.02948 C 197.884796 179.02948 202.862106 184.006165 202.862106 190.439453 C 202.862106 196.872742 197.884796 201.849442 191.452118 201.849442 Z"/>
    </g>
</svg>
