<?xml version="1.0" encoding="UTF-8"?>
<!-- Generated by Pixelmator Pro 3.4.3 -->
<svg width="381" height="381" viewBox="0 0 381 381" xmlns="http://www.w3.org/2000/svg">
    <g id="-copy">
        <path id="path1" fill="#ffffff" stroke="none" d="M 19.610619 125.809128 C 30.998152 125.809128 37.055347 119.509644 37.055347 108.122101 L 37.055347 64.752563 C 37.055347 46.580963 46.989155 37.131744 64.434486 37.131744 L 109.014862 37.131744 C 120.403 37.131744 126.701881 30.832275 126.701881 19.687012 C 126.701881 8.2995 120.403 2 109.014862 2 L 63.949306 2 C 22.760363 2 2.165889 22.352173 2.165889 63.056549 L 2.165889 108.122101 C 2.165889 119.509644 8.465375 125.809128 19.610619 125.809128 Z M 361.478882 125.809128 C 372.866394 125.809128 378.923615 119.509644 378.923615 108.122101 L 378.923615 63.056549 C 378.923615 22.352173 358.571411 2 317.140167 2 L 272.074615 2 C 260.687103 2 254.387619 8.2995 254.387619 19.687012 C 254.387619 30.832275 260.687103 37.131744 272.074615 37.131744 L 316.655609 37.131744 C 334.100342 37.131744 344.034149 46.580963 344.034149 64.752563 L 344.034149 108.122101 C 344.034149 119.509644 350.333618 125.809128 361.478882 125.809128 Z M 63.949306 379 L 109.014862 379 C 120.403 379 126.701881 372.7005 126.701881 361.555267 C 126.701881 350.167725 120.403 343.868256 109.014862 343.868256 L 64.434486 343.868256 C 46.989155 343.868256 37.055347 334.419006 37.055347 316.247437 L 37.055347 273.120178 C 37.055347 261.490356 30.755863 255.190872 19.610619 255.190872 C 8.223087 255.190872 2.165889 261.490356 2.165889 273.120178 L 2.165889 317.943451 C 2.165889 358.647827 22.760363 379 63.949306 379 Z M 272.074615 379 L 317.140167 379 C 358.571411 379 378.923615 358.647827 378.923615 317.943451 L 378.923615 273.120178 C 378.923615 261.490356 372.624115 255.190872 361.478882 255.190872 C 350.091339 255.190872 344.034149 261.490356 344.034149 273.120178 L 344.034149 316.247437 C 344.034149 334.419006 334.100342 343.868256 316.655609 343.868256 L 272.074615 343.868256 C 260.687103 343.868256 254.387619 350.167725 254.387619 361.555267 C 254.387619 372.7005 260.687103 379 272.074615 379 Z"/>
        <path id="path2" fill="#ffffff" stroke="none" d="M 190.593872 76 C 253.830612 76 305.093872 127.26326 305.093872 190.5 C 305.093872 253.73674 253.830612 305 190.593872 305 C 127.357483 305 76.093872 253.73674 76.093872 190.5 C 76.093872 127.26326 127.357483 76 190.593872 76 Z M 208.563507 217.658356 C 212.05777 208.115768 204.919815 201.841705 199.014526 201.016144 C 190.207718 201.016144 181.16983 201.016144 172.655121 201.016144 C 188.897675 172.710312 207.955154 139.497971 208.831833 137.96965 C 211.119339 133.983109 209.74115 128.898056 205.75531 126.610901 C 201.769119 124.323761 196.685135 125.700516 194.396927 129.686707 C 194.177216 130.070023 192.766388 132.529312 190.593872 136.315338 C 188.397232 132.486374 187.012299 130.072159 186.790817 129.686707 C 184.503662 125.700516 179.418625 124.323761 175.432785 126.610901 C 171.446945 128.898056 170.068756 133.983109 172.356979 137.96965 C 172.712265 138.588638 176.070587 144.441757 181.000885 153.034195 C 172.846069 167.246201 162.36293 185.515396 153.469162 201.016144 C 140.944824 201.016144 132.081924 201.016144 131.255661 201.016144 C 126.659698 201.016144 122.935089 204.741119 122.935089 209.337067 C 122.935089 213.932327 126.659698 217.658356 131.255661 217.658356 C 133.10199 217.658356 175.044144 217.658356 208.563507 217.658356 Z M 249.932449 217.658356 C 254.528046 217.658356 258.253021 213.932327 258.253021 209.337067 C 258.253021 204.741119 254.528046 201.016144 249.932449 201.016144 C 249.108307 201.016144 240.213821 201.016144 227.71965 201.016144 C 219.809021 187.229691 210.621719 171.218918 202.947479 157.844177 C 196.378479 165.945755 195.319382 174.834564 198.999619 184.401993 C 214.285294 211.042145 230.609482 239.492081 231.420135 240.903976 C 233.706924 244.890167 238.792679 246.266937 242.777817 243.980133 C 246.765076 241.692627 248.14183 236.607224 245.854324 232.621384 C 245.501175 232.005234 242.156693 226.177673 237.268982 217.658356 C 244.543579 217.658356 249.338287 217.658356 249.932449 217.658356 Z M 149.768677 240.903976 C 150.11438 240.302734 153.284241 234.776871 157.981354 226.590103 C 153.53978 221.387222 147.986938 220.080017 141.599304 221.702393 C 137.993607 227.986038 135.628723 232.107452 135.333771 232.621384 C 133.046982 236.607224 134.423386 241.692627 138.408859 243.980133 C 142.395416 246.266937 147.480453 244.890167 149.768677 240.903976 Z"/>
    </g>
</svg>
