<?xml version="1.0" encoding="UTF-8"?>
<!-- Generated by Pixelmator Pro 3.4.3 -->
<svg width="381" height="381" viewBox="0 0 381 381" xmlns="http://www.w3.org/2000/svg">
    <g id="-copy">
        <filter id="filter1" x="0" y="0" width="381" height="381" filterUnits="userSpaceOnUse" primitiveUnits="userSpaceOnUse" color-interpolation-filters="sRGB">
            <feGaussianBlur stdDeviation="3.344563"/>
            <feOffset dx="-0" dy="1.337825" result="offsetblur"/>
            <feFlood flood-color="#000000" flood-opacity="0.5"/>
            <feComposite in2="offsetblur" operator="in"/>
            <feMerge>
                <feMergeNode/>
                <feMergeNode in="SourceGraphic"/>
            </feMerge>
        </filter>
        <path id="path1" fill="#c4bcbc" stroke="#000000" stroke-width="0.668913" stroke-opacity="0.557038" stroke-linecap="round" stroke-linejoin="round" filter="url(#filter1)" d="M 125.847977 278.96698 C 149.532379 334.763947 211.280228 359.397217 282.26004 329.268066 L 302.946198 320.487335 C 322.684387 312.108978 336.84317 304.307068 344.037262 298.565582 C 354.704315 290.453979 363.111237 278.598175 356.908173 263.98468 C 354.491394 258.291107 351.12027 254.570526 347.852905 252.14975 C 345.9086 250.73526 345.373352 248.946625 346.948975 247.381897 C 354.827057 239.558212 358.821991 227.335373 353.666199 215.189087 C 350.766052 208.356812 346.289825 203.089462 341.10141 200.364243 C 338.427094 198.811646 337.730713 196.643448 339.852478 193.72699 C 344.883789 187.11171 346.192566 176.47702 341.922943 166.418381 C 338.94223 159.396317 333.442932 152.771393 327.926788 150.857208 C 324.492889 149.62706 324.417297 147.867294 325.728485 144.622955 C 329.051727 138.732697 329.107605 130.421692 325.401886 121.691559 C 319.198822 107.078064 302.655884 99.76532 287.473053 106.210083 L 233.763718 129.008331 C 220.099152 134.808594 208.279099 131.762589 203.445541 120.375458 C 194.825714 100.06839 204.38681 51.885712 192.947403 24.936157 C 186.905472 10.702209 174.25116 6.218506 162.104874 11.374298 C 151.287094 15.966156 149.194992 25.813446 148.14566 39.697723 C 144.061127 93.395081 129.110916 142.073471 119.11689 182.376617 C 110.605583 216.67485 110.622292 243.097504 125.847977 278.96698 Z M 50.037521 312.490509 C 69.210617 357.659485 113.790298 383.532715 151.747421 367.420868 L 176.988907 356.706482 C 141.41951 347.838837 117.792816 322.254822 103.372719 288.283203 C 87.341438 250.515854 90.302505 216.333755 96.768639 194.102692 L 75.322861 203.205887 C 41.16098 217.706741 30.139399 265.613464 50.037521 312.490509 Z"/>
    </g>
    <g id="g1"/>
</svg>
