<?xml version="1.0" encoding="UTF-8"?>
<!-- Generated by Pixelmator Pro 3.4.3 -->
<svg width="381" height="381" viewBox="0 0 381 381" xmlns="http://www.w3.org/2000/svg">
    <path id="Path" fill="#c4bcbc" stroke="none" d="M 311.909943 129.350677 L 250.927963 129.350677 L 254.412628 100.60202 C 259.639648 57.914673 250.927963 23.938995 223.050461 16.09845 L 220.436966 16.09845 C 214.583191 17.126312 209.65715 21.067139 207.3694 26.55249 C 207.3694 26.55249 157.712616 131.093048 128.963974 152.00116 L 128.963974 329.720093 L 140.2892 329.720093 C 144.104599 329.396423 147.885132 330.656616 150.743256 333.204773 C 162.939636 341.916504 203.88472 364.566925 224.792801 364.566925 L 268.351379 364.566925 C 319.750488 364.566925 364.180206 329.720093 368.536072 260.897522 L 368.536072 260.897522 L 372.891937 191.203857 C 373.8992 174.664383 367.829224 158.476318 356.195801 146.676697 C 344.562378 134.87706 328.462006 128.57811 311.909943 129.350677 Z M 7 172.909256 L 7 312.296661 C 7 321.919342 14.800734 329.720093 24.423426 329.720093 L 94.117126 329.720093 L 94.117126 155.48584 L 24.423426 155.48584 C 14.800734 155.48584 7 163.28656 7 172.909256 Z"/>
</svg>
