<svg width="16" height="16" viewBox="0 0 16 16" fill="none" xmlns="http://www.w3.org/2000/svg">
<circle cx="8" cy="8" r="8" fill="#E07153"/>
<path d="M10.4213 10.688C9.90925 11.392 9.19103 11.744 8.26659 11.744C7.34214 11.744 6.62036 11.392 6.10125 10.688C5.58925 9.984 5.33325 9.04533 5.33325 7.872C5.33325 6.69867 5.58925 5.76 6.10125 5.056C6.62036 4.352 7.34214 4 8.26659 4C9.19103 4 9.90925 4.352 10.4213 5.056C10.9404 5.76 11.1999 6.69867 11.1999 7.872C11.1999 9.04533 10.9404 9.984 10.4213 10.688ZM8.26659 10.5493C8.82125 10.5493 9.24436 10.3182 9.53592 9.856C9.82747 9.39378 9.97325 8.73244 9.97325 7.872C9.97325 7.01156 9.82747 6.35022 9.53592 5.888C9.24436 5.42578 8.82125 5.19467 8.26659 5.19467C7.71903 5.19467 7.29592 5.42578 6.99725 5.888C6.7057 6.35022 6.55992 7.01156 6.55992 7.872C6.55992 8.73244 6.7057 9.39378 6.99725 9.856C7.29592 10.3182 7.71903 10.5493 8.26659 10.5493Z" fill="white"/>
</svg>
