<?xml version="1.0" encoding="UTF-8"?>
<!-- Generated by Pixelmator Pro 3.3.13 -->
<svg width="256" height="256" viewBox="0 0 256 256" xmlns="http://www.w3.org/2000/svg">
    <g id="SVGRepobgCarrier"/>
    <g id="SVGRepotracerCarrier"/>
    <g id="SVGRepoiconCarrier">
        <g id="Group" opacity="0.5">
            <path id="Path" fill="#1e5cf0" stroke="none" d="M 151.813919 17.860474 C 174.518143 17.860474 190.648514 17.879425 202.8853 19.524612 C 214.863739 21.135254 221.76622 24.155579 226.805222 29.194733 C 232.605118 34.995087 235.130569 39.491409 236.528458 47.506943 C 238.104965 56.541473 238.139481 69.428635 238.139481 92.279068 C 238.139481 97.211166 242.137848 101.20929 247.069717 101.20929 C 252.001572 101.20929 255.999939 97.211166 255.999939 92.279068 L 255.999939 91.132309 C 256.001129 69.709381 256.001129 55.197281 254.123398 44.436722 C 252.034912 32.466171 247.584076 24.715088 239.434967 16.565475 C 230.523758 7.654785 219.22525 3.700226 205.264328 1.823456 C 191.699905 -0.000336 174.368118 -0.000214 152.485489 1.5e-05 L 151.813919 1.5e-05 C 146.882065 1.5e-05 142.883682 3.998276 142.883682 8.930252 C 142.883682 13.862244 146.882065 17.860474 151.813919 17.860474 Z"/>
            <path id="path1" fill="#1e5cf0" stroke="none" d="M 8.930371 154.79068 C 13.862358 154.79068 17.860601 158.789032 17.860601 163.720901 C 17.860601 186.571564 17.894892 199.458496 19.471375 208.4935 C 20.869967 216.508087 23.394487 221.005356 29.194849 226.805222 C 34.233997 231.844269 41.135757 234.865067 53.115238 236.474899 C 65.351685 238.120422 81.481575 238.139481 104.186028 238.139481 C 109.117905 238.139481 113.116264 242.137848 113.116264 247.069702 C 113.116264 252.001572 109.117905 255.999939 104.186028 255.999939 L 103.514366 255.999939 C 81.632202 255.999939 64.300049 255.999939 50.735394 254.176987 C 36.775421 252.29924 25.476301 248.34494 16.565596 239.434967 C 8.41599 231.284637 3.965519 223.533203 1.876798 211.56311 C -0.000931 200.80278 -0.000573 186.290558 2.1e-05 164.868744 L 0.00014 163.720901 C 0.00014 158.789032 3.998265 154.79068 8.930371 154.79068 Z"/>
            <path id="path2" fill="#1e5cf0" stroke="none" d="M 247.069717 154.79068 C 252.001572 154.79068 255.999939 158.789032 255.999939 163.720901 L 255.999939 164.867538 C 256.001129 186.290558 256.001129 200.80278 254.123398 211.56311 C 252.034912 223.533203 247.584076 231.284637 239.434967 239.434967 C 230.523758 248.34494 219.22525 252.29924 205.264328 254.176987 C 191.699905 255.999939 174.368118 255.999939 152.485489 255.999939 L 151.813919 255.999939 C 146.882065 255.999939 142.883682 252.001572 142.883682 247.069702 C 142.883682 242.137848 146.882065 238.139481 151.813919 238.139481 C 174.518143 238.139481 190.648514 238.120422 202.8853 236.474899 C 214.863739 234.865067 221.76622 231.844269 226.805222 226.805222 C 232.605118 221.005356 235.130569 216.508087 236.528458 208.4935 C 238.104965 199.458496 238.139481 186.571564 238.139481 163.720901 C 238.139481 158.789032 242.137848 154.79068 247.069717 154.79068 Z"/>
            <path id="path3" fill="#1e5cf0" stroke="none" d="M 103.514366 1.5e-05 L 104.186028 1.5e-05 C 109.117905 1.5e-05 113.116264 3.998276 113.116264 8.930252 C 113.116264 13.862244 109.117905 17.860474 104.186028 17.860474 C 81.481705 17.860474 65.351685 17.879425 53.115238 19.524612 C 41.135757 21.135254 34.233997 24.155579 29.194849 29.194733 C 23.394487 34.995087 20.869967 39.491409 19.471375 47.506943 C 17.894892 56.541473 17.860601 69.428635 17.860601 92.279068 C 17.860601 97.211166 13.862358 101.20929 8.930371 101.20929 C 3.998265 101.20929 0.00014 97.211166 0.00014 92.279068 L 2.1e-05 91.132309 C -0.000573 69.709747 -0.000931 55.197189 1.876798 44.436722 C 3.965519 32.466171 8.41599 24.715088 16.565596 16.565475 C 25.476301 7.654785 36.775421 3.700226 50.735394 1.823456 C 64.299934 -0.000336 81.632317 -0.000214 103.514366 1.5e-05 Z"/>
        </g>
        <path id="path4" fill="#1e5cf0" stroke="none" d="M 127.999977 113.116272 C 119.779404 113.116272 113.116264 119.779404 113.116264 127.999985 C 113.116264 136.220551 119.779404 142.883698 127.999977 142.883698 C 136.220566 142.883698 142.883682 136.220551 142.883682 127.999985 C 142.883682 119.779404 136.220566 113.116272 127.999977 113.116272 Z"/>
        <path id="path5" fill="#1e5cf0" fill-rule="evenodd" stroke="none" d="M 55.277306 152.52597 C 48.193138 144.30896 44.651169 140.19986 44.651169 127.999985 C 44.651169 115.80011 48.193256 111.690994 55.277187 103.474121 C 69.422081 87.066422 93.14447 68.465118 127.999977 68.465118 C 162.855255 68.465118 186.577515 87.066422 200.722992 103.474121 C 207.806458 111.690994 211.348801 115.80011 211.348801 127.999985 C 211.348801 140.19986 207.806458 144.30896 200.722992 152.52597 C 186.577515 168.933777 162.855255 187.534851 127.999977 187.534851 C 93.14447 187.534851 69.422203 168.933777 55.277306 152.52597 Z M 95.255798 127.999985 C 95.255798 109.91568 109.915672 95.255814 127.999977 95.255814 C 146.08429 95.255814 160.744156 109.91568 160.744156 127.999985 C 160.744156 146.08429 146.08429 160.744171 127.999977 160.744171 C 109.915672 160.744171 95.255798 146.08429 95.255798 127.999985 Z"/>
    </g>
</svg>
