<?xml version="1.0" encoding="UTF-8"?>
<!-- Generated by Pixelmator Pro 3.3.13 -->
<svg width="256" height="256" viewBox="0 0 256 256" xmlns="http://www.w3.org/2000/svg">
    <g id="SVGRepobgCarrier"/>
    <g id="SVGRepotracerCarrier"/>
    <g id="SVGRepoiconCarrier">
        <path id="Path" fill="#e84f36" stroke="#e84f36" stroke-width="6.702545" d="M 45.818176 0 C 20.636366 0 -0 20.636383 -0 45.818192 L -0 210.181824 C -0 235.363632 20.636366 256 45.818176 256 L 210.181808 256 C 235.363647 256 256 235.363632 256 210.181824 L 256 45.818192 C 256 20.636383 235.363647 0 210.181808 0 Z M 45.818176 23.27272 L 210.181808 23.27272 C 222.772736 23.27272 232.72728 33.227264 232.72728 45.818192 L 232.72728 210.181824 C 232.72728 222.772736 222.772736 232.72728 210.181808 232.72728 L 45.818176 232.72728 C 33.227272 232.72728 23.272726 222.772736 23.272726 210.181824 L 23.272726 45.818192 C 23.272726 33.227264 33.227272 23.27272 45.818176 23.27272 Z M 146.909088 52.363647 C 146.909088 52.363647 176.045471 89.136368 161.090897 130.545456 C 161.090897 130.545456 108.636375 93.363632 82.181816 66.545456 C 82.181816 66.545456 115.090904 114.227264 126.909096 123.999985 C 126.909096 123.999985 107.181831 113.499985 61.454544 74.545456 C 61.454544 74.545456 114.227272 143.136353 138.909088 157.454544 C 138.909088 157.454544 101.363655 182.954544 46.54546 146.909088 C 46.54546 146.909088 75.181839 197.818176 136 197.818176 C 163.318192 197.818176 171.545471 183.636353 185.090897 183.636353 C 199.181824 183.636353 207.636368 197.818176 207.636368 197.818176 C 215.863647 177.72728 195.272736 154.909088 195.272736 154.909088 C 195.272736 154.909088 218.5 101.045456 146.909088 52.363647 Z"/>
    </g>
</svg>
